G04 DipTrace 5.1.0.1*
G04 2 - Bottom.gbl*
%MOIN*%
G04 #@! TF.FileFunction,Copper,L2,Bot*
G04 #@! TF.Part,Single*
G04 #@! TA.AperFunction,ComponentPad*
%ADD15C,0.055118*%
%FSLAX26Y26*%
G04*
G70*
G90*
G75*
G01*
G04 Bottom*
%LPD*%
D15*
X712402Y941732D3*
X812402D3*
X912402D3*
X1012402D3*
X1112402D3*
X1212402D3*
X1312402D3*
X1412402D3*
X712402Y841732D3*
X812402D3*
X912402D3*
X1012402D3*
X1112402D3*
X1212402D3*
X1312402D3*
X1412402D3*
X712402Y741732D3*
X812402D3*
X912402D3*
X1012402D3*
X1112402D3*
X1212402D3*
X1312402D3*
X1412402D3*
X712402Y641732D3*
X812402D3*
X912402D3*
X1012402D3*
X1112402D3*
X1212402D3*
X1312402D3*
X1412402D3*
X712402Y541732D3*
X812402D3*
X912402D3*
X1012402D3*
X1112402D3*
X1212402D3*
X1312402D3*
X1412402D3*
X712402Y1041732D3*
X812402D3*
X912402D3*
X1012402D3*
X1112402D3*
X1212402D3*
X1312402D3*
X1412402D3*
G36*
X737008Y891732D2*
X762402Y866339D1*
X774094Y878031D1*
X782992D1*
X769291Y891732D1*
X782953Y905394D1*
X776063D1*
Y912283D1*
X762402Y898622D1*
X748701Y912323D1*
Y903425D1*
X737008Y891732D1*
G37*
G36*
X740748Y922047D2*
X749606D1*
X762402Y909252D1*
X775197Y922047D1*
X784055D1*
X776181Y929921D1*
Y953543D1*
X784055Y961417D1*
X775709D1*
Y969409D1*
X762402Y956102D1*
X748701Y969409D1*
Y961417D1*
X740748D1*
X748622Y953543D1*
Y929921D1*
X740748Y922047D1*
G37*
G36*
X692717Y913386D2*
Y904528D1*
X679921Y891732D1*
X692717Y878937D1*
Y870079D1*
X700591Y877953D1*
X724213D1*
X732087Y870079D1*
Y878425D1*
X740079D1*
X726772Y891732D1*
X740079Y905433D1*
X732087D1*
Y913386D1*
X724213Y905512D1*
X700591D1*
X692717Y913386D1*
G37*
G36*
X837008Y891732D2*
X862402Y866339D1*
X874094Y878031D1*
X882992D1*
X869291Y891732D1*
X882953Y905394D1*
X876063D1*
Y912283D1*
X862402Y898622D1*
X848701Y912323D1*
Y903425D1*
X837008Y891732D1*
G37*
G36*
X840748Y922047D2*
X849606D1*
X862402Y909252D1*
X875197Y922047D1*
X884055D1*
X876181Y929921D1*
Y953543D1*
X884055Y961417D1*
X875709D1*
Y969409D1*
X862402Y956102D1*
X848701Y969409D1*
Y961417D1*
X840748D1*
X848622Y953543D1*
Y929921D1*
X840748Y922047D1*
G37*
G36*
X792717Y913386D2*
Y904528D1*
X779921Y891732D1*
X792717Y878937D1*
Y870079D1*
X800591Y877953D1*
X824213D1*
X832087Y870079D1*
Y878425D1*
X840079D1*
X826772Y891732D1*
X840079Y905433D1*
X832087D1*
Y913386D1*
X824213Y905512D1*
X800591D1*
X792717Y913386D1*
G37*
G36*
X937008Y891732D2*
X962402Y866339D1*
X974094Y878031D1*
X982992D1*
X969291Y891732D1*
X982953Y905394D1*
X976063D1*
Y912283D1*
X962402Y898622D1*
X948701Y912323D1*
Y903425D1*
X937008Y891732D1*
G37*
G36*
X940748Y922047D2*
X949606D1*
X962402Y909252D1*
X975197Y922047D1*
X984055D1*
X976181Y929921D1*
Y953543D1*
X984055Y961417D1*
X975709D1*
Y969409D1*
X962402Y956102D1*
X948701Y969409D1*
Y961417D1*
X940748D1*
X948622Y953543D1*
Y929921D1*
X940748Y922047D1*
G37*
G36*
X892717Y913386D2*
Y904528D1*
X879921Y891732D1*
X892717Y878937D1*
Y870079D1*
X900591Y877953D1*
X924213D1*
X932087Y870079D1*
Y878425D1*
X940079D1*
X926772Y891732D1*
X940079Y905433D1*
X932087D1*
Y913386D1*
X924213Y905512D1*
X900591D1*
X892717Y913386D1*
G37*
G36*
X1037008Y891732D2*
X1062402Y866339D1*
X1074094Y878031D1*
X1082992D1*
X1069291Y891732D1*
X1082953Y905394D1*
X1076063D1*
Y912283D1*
X1062402Y898622D1*
X1048701Y912323D1*
Y903425D1*
X1037008Y891732D1*
G37*
G36*
X1040748Y922047D2*
X1049606D1*
X1062402Y909252D1*
X1075197Y922047D1*
X1084055D1*
X1076181Y929921D1*
Y953543D1*
X1084055Y961417D1*
X1075709D1*
Y969409D1*
X1062402Y956102D1*
X1048701Y969409D1*
Y961417D1*
X1040748D1*
X1048622Y953543D1*
Y929921D1*
X1040748Y922047D1*
G37*
G36*
X992717Y913386D2*
Y904528D1*
X979921Y891732D1*
X992717Y878937D1*
Y870079D1*
X1000591Y877953D1*
X1024213D1*
X1032087Y870079D1*
Y878425D1*
X1040079D1*
X1026772Y891732D1*
X1040079Y905433D1*
X1032087D1*
Y913386D1*
X1024213Y905512D1*
X1000591D1*
X992717Y913386D1*
G37*
G36*
X1137008Y891732D2*
X1162402Y866339D1*
X1174094Y878031D1*
X1182992D1*
X1169291Y891732D1*
X1182953Y905394D1*
X1176063D1*
Y912283D1*
X1162402Y898622D1*
X1148701Y912323D1*
Y903425D1*
X1137008Y891732D1*
G37*
G36*
X1140748Y922047D2*
X1149606D1*
X1162402Y909252D1*
X1175197Y922047D1*
X1184055D1*
X1176181Y929921D1*
Y953543D1*
X1184055Y961417D1*
X1175709D1*
Y969409D1*
X1162402Y956102D1*
X1148701Y969409D1*
Y961417D1*
X1140748D1*
X1148622Y953543D1*
Y929921D1*
X1140748Y922047D1*
G37*
G36*
X1092717Y913386D2*
Y904528D1*
X1079921Y891732D1*
X1092717Y878937D1*
Y870079D1*
X1100591Y877953D1*
X1124213D1*
X1132087Y870079D1*
Y878425D1*
X1140079D1*
X1126772Y891732D1*
X1140079Y905433D1*
X1132087D1*
Y913386D1*
X1124213Y905512D1*
X1100591D1*
X1092717Y913386D1*
G37*
G36*
X1237008Y891732D2*
X1262402Y866339D1*
X1274094Y878031D1*
X1282992D1*
X1269291Y891732D1*
X1282953Y905394D1*
X1276063D1*
Y912283D1*
X1262402Y898622D1*
X1248701Y912323D1*
Y903425D1*
X1237008Y891732D1*
G37*
G36*
X1240748Y922047D2*
X1249606D1*
X1262402Y909252D1*
X1275197Y922047D1*
X1284055D1*
X1276181Y929921D1*
Y953543D1*
X1284055Y961417D1*
X1275709D1*
Y969409D1*
X1262402Y956102D1*
X1248701Y969409D1*
Y961417D1*
X1240748D1*
X1248622Y953543D1*
Y929921D1*
X1240748Y922047D1*
G37*
G36*
X1192717Y913386D2*
Y904528D1*
X1179921Y891732D1*
X1192717Y878937D1*
Y870079D1*
X1200591Y877953D1*
X1224213D1*
X1232087Y870079D1*
Y878425D1*
X1240079D1*
X1226772Y891732D1*
X1240079Y905433D1*
X1232087D1*
Y913386D1*
X1224213Y905512D1*
X1200591D1*
X1192717Y913386D1*
G37*
G36*
X1337008Y891732D2*
X1362402Y866339D1*
X1374094Y878031D1*
X1382992D1*
X1369291Y891732D1*
X1382953Y905394D1*
X1376063D1*
Y912283D1*
X1362402Y898622D1*
X1348701Y912323D1*
Y903425D1*
X1337008Y891732D1*
G37*
G36*
X1340748Y922047D2*
X1349606D1*
X1362402Y909252D1*
X1375197Y922047D1*
X1384055D1*
X1376181Y929921D1*
Y953543D1*
X1384055Y961417D1*
X1375709D1*
Y969409D1*
X1362402Y956102D1*
X1348701Y969409D1*
Y961417D1*
X1340748D1*
X1348622Y953543D1*
Y929921D1*
X1340748Y922047D1*
G37*
G36*
X1292717Y913386D2*
Y904528D1*
X1279921Y891732D1*
X1292717Y878937D1*
Y870079D1*
X1300591Y877953D1*
X1324213D1*
X1332087Y870079D1*
Y878425D1*
X1340079D1*
X1326772Y891732D1*
X1340079Y905433D1*
X1332087D1*
Y913386D1*
X1324213Y905512D1*
X1300591D1*
X1292717Y913386D1*
G37*
G36*
X1437008Y891732D2*
X1462402Y866339D1*
X1474094Y878031D1*
X1482992D1*
X1469291Y891732D1*
X1482953Y905394D1*
X1476063D1*
Y912283D1*
X1462402Y898622D1*
X1448701Y912323D1*
Y903425D1*
X1437008Y891732D1*
G37*
G36*
X1440748Y922047D2*
X1449606D1*
X1462402Y909252D1*
X1475197Y922047D1*
X1484055D1*
X1476181Y929921D1*
Y953543D1*
X1484055Y961417D1*
X1475709D1*
Y969409D1*
X1462402Y956102D1*
X1448701Y969409D1*
Y961417D1*
X1440748D1*
X1448622Y953543D1*
Y929921D1*
X1440748Y922047D1*
G37*
G36*
X1392717Y913386D2*
Y904528D1*
X1379921Y891732D1*
X1392717Y878937D1*
Y870079D1*
X1400591Y877953D1*
X1424213D1*
X1432087Y870079D1*
Y878425D1*
X1440079D1*
X1426772Y891732D1*
X1440079Y905433D1*
X1432087D1*
Y913386D1*
X1424213Y905512D1*
X1400591D1*
X1392717Y913386D1*
G37*
G36*
X737008Y791732D2*
X762402Y766339D1*
X774094Y778031D1*
X782992D1*
X769291Y791732D1*
X782953Y805394D1*
X776063D1*
Y812283D1*
X762402Y798622D1*
X748701Y812323D1*
Y803425D1*
X737008Y791732D1*
G37*
G36*
X740748Y822047D2*
X749606D1*
X762402Y809252D1*
X775197Y822047D1*
X784055D1*
X776181Y829921D1*
Y853543D1*
X784055Y861417D1*
X775709D1*
Y869409D1*
X762402Y856102D1*
X748701Y869409D1*
Y861417D1*
X740748D1*
X748622Y853543D1*
Y829921D1*
X740748Y822047D1*
G37*
G36*
X692717Y813386D2*
Y804528D1*
X679921Y791732D1*
X692717Y778937D1*
Y770079D1*
X700591Y777953D1*
X724213D1*
X732087Y770079D1*
Y778425D1*
X740079D1*
X726772Y791732D1*
X740079Y805433D1*
X732087D1*
Y813386D1*
X724213Y805512D1*
X700591D1*
X692717Y813386D1*
G37*
G36*
X837008Y791732D2*
X862402Y766339D1*
X874094Y778031D1*
X882992D1*
X869291Y791732D1*
X882953Y805394D1*
X876063D1*
Y812283D1*
X862402Y798622D1*
X848701Y812323D1*
Y803425D1*
X837008Y791732D1*
G37*
G36*
X840748Y822047D2*
X849606D1*
X862402Y809252D1*
X875197Y822047D1*
X884055D1*
X876181Y829921D1*
Y853543D1*
X884055Y861417D1*
X875709D1*
Y869409D1*
X862402Y856102D1*
X848701Y869409D1*
Y861417D1*
X840748D1*
X848622Y853543D1*
Y829921D1*
X840748Y822047D1*
G37*
G36*
X792717Y813386D2*
Y804528D1*
X779921Y791732D1*
X792717Y778937D1*
Y770079D1*
X800591Y777953D1*
X824213D1*
X832087Y770079D1*
Y778425D1*
X840079D1*
X826772Y791732D1*
X840079Y805433D1*
X832087D1*
Y813386D1*
X824213Y805512D1*
X800591D1*
X792717Y813386D1*
G37*
G36*
X937008Y791732D2*
X962402Y766339D1*
X974094Y778031D1*
X982992D1*
X969291Y791732D1*
X982953Y805394D1*
X976063D1*
Y812283D1*
X962402Y798622D1*
X948701Y812323D1*
Y803425D1*
X937008Y791732D1*
G37*
G36*
X940748Y822047D2*
X949606D1*
X962402Y809252D1*
X975197Y822047D1*
X984055D1*
X976181Y829921D1*
Y853543D1*
X984055Y861417D1*
X975709D1*
Y869409D1*
X962402Y856102D1*
X948701Y869409D1*
Y861417D1*
X940748D1*
X948622Y853543D1*
Y829921D1*
X940748Y822047D1*
G37*
G36*
X892717Y813386D2*
Y804528D1*
X879921Y791732D1*
X892717Y778937D1*
Y770079D1*
X900591Y777953D1*
X924213D1*
X932087Y770079D1*
Y778425D1*
X940079D1*
X926772Y791732D1*
X940079Y805433D1*
X932087D1*
Y813386D1*
X924213Y805512D1*
X900591D1*
X892717Y813386D1*
G37*
G36*
X1037008Y791732D2*
X1062402Y766339D1*
X1074094Y778031D1*
X1082992D1*
X1069291Y791732D1*
X1082953Y805394D1*
X1076063D1*
Y812283D1*
X1062402Y798622D1*
X1048701Y812323D1*
Y803425D1*
X1037008Y791732D1*
G37*
G36*
X1040748Y822047D2*
X1049606D1*
X1062402Y809252D1*
X1075197Y822047D1*
X1084055D1*
X1076181Y829921D1*
Y853543D1*
X1084055Y861417D1*
X1075709D1*
Y869409D1*
X1062402Y856102D1*
X1048701Y869409D1*
Y861417D1*
X1040748D1*
X1048622Y853543D1*
Y829921D1*
X1040748Y822047D1*
G37*
G36*
X992717Y813386D2*
Y804528D1*
X979921Y791732D1*
X992717Y778937D1*
Y770079D1*
X1000591Y777953D1*
X1024213D1*
X1032087Y770079D1*
Y778425D1*
X1040079D1*
X1026772Y791732D1*
X1040079Y805433D1*
X1032087D1*
Y813386D1*
X1024213Y805512D1*
X1000591D1*
X992717Y813386D1*
G37*
G36*
X1137008Y791732D2*
X1162402Y766339D1*
X1174094Y778031D1*
X1182992D1*
X1169291Y791732D1*
X1182953Y805394D1*
X1176063D1*
Y812283D1*
X1162402Y798622D1*
X1148701Y812323D1*
Y803425D1*
X1137008Y791732D1*
G37*
G36*
X1140748Y822047D2*
X1149606D1*
X1162402Y809252D1*
X1175197Y822047D1*
X1184055D1*
X1176181Y829921D1*
Y853543D1*
X1184055Y861417D1*
X1175709D1*
Y869409D1*
X1162402Y856102D1*
X1148701Y869409D1*
Y861417D1*
X1140748D1*
X1148622Y853543D1*
Y829921D1*
X1140748Y822047D1*
G37*
G36*
X1092717Y813386D2*
Y804528D1*
X1079921Y791732D1*
X1092717Y778937D1*
Y770079D1*
X1100591Y777953D1*
X1124213D1*
X1132087Y770079D1*
Y778425D1*
X1140079D1*
X1126772Y791732D1*
X1140079Y805433D1*
X1132087D1*
Y813386D1*
X1124213Y805512D1*
X1100591D1*
X1092717Y813386D1*
G37*
G36*
X1237008Y791732D2*
X1262402Y766339D1*
X1274094Y778031D1*
X1282992D1*
X1269291Y791732D1*
X1282953Y805394D1*
X1276063D1*
Y812283D1*
X1262402Y798622D1*
X1248701Y812323D1*
Y803425D1*
X1237008Y791732D1*
G37*
G36*
X1240748Y822047D2*
X1249606D1*
X1262402Y809252D1*
X1275197Y822047D1*
X1284055D1*
X1276181Y829921D1*
Y853543D1*
X1284055Y861417D1*
X1275709D1*
Y869409D1*
X1262402Y856102D1*
X1248701Y869409D1*
Y861417D1*
X1240748D1*
X1248622Y853543D1*
Y829921D1*
X1240748Y822047D1*
G37*
G36*
X1192717Y813386D2*
Y804528D1*
X1179921Y791732D1*
X1192717Y778937D1*
Y770079D1*
X1200591Y777953D1*
X1224213D1*
X1232087Y770079D1*
Y778425D1*
X1240079D1*
X1226772Y791732D1*
X1240079Y805433D1*
X1232087D1*
Y813386D1*
X1224213Y805512D1*
X1200591D1*
X1192717Y813386D1*
G37*
G36*
X1337008Y791732D2*
X1362402Y766339D1*
X1374094Y778031D1*
X1382992D1*
X1369291Y791732D1*
X1382953Y805394D1*
X1376063D1*
Y812283D1*
X1362402Y798622D1*
X1348701Y812323D1*
Y803425D1*
X1337008Y791732D1*
G37*
G36*
X1340748Y822047D2*
X1349606D1*
X1362402Y809252D1*
X1375197Y822047D1*
X1384055D1*
X1376181Y829921D1*
Y853543D1*
X1384055Y861417D1*
X1375709D1*
Y869409D1*
X1362402Y856102D1*
X1348701Y869409D1*
Y861417D1*
X1340748D1*
X1348622Y853543D1*
Y829921D1*
X1340748Y822047D1*
G37*
G36*
X1292717Y813386D2*
Y804528D1*
X1279921Y791732D1*
X1292717Y778937D1*
Y770079D1*
X1300591Y777953D1*
X1324213D1*
X1332087Y770079D1*
Y778425D1*
X1340079D1*
X1326772Y791732D1*
X1340079Y805433D1*
X1332087D1*
Y813386D1*
X1324213Y805512D1*
X1300591D1*
X1292717Y813386D1*
G37*
G36*
X1437008Y791732D2*
X1462402Y766339D1*
X1474094Y778031D1*
X1482992D1*
X1469291Y791732D1*
X1482953Y805394D1*
X1476063D1*
Y812283D1*
X1462402Y798622D1*
X1448701Y812323D1*
Y803425D1*
X1437008Y791732D1*
G37*
G36*
X1440748Y822047D2*
X1449606D1*
X1462402Y809252D1*
X1475197Y822047D1*
X1484055D1*
X1476181Y829921D1*
Y853543D1*
X1484055Y861417D1*
X1475709D1*
Y869409D1*
X1462402Y856102D1*
X1448701Y869409D1*
Y861417D1*
X1440748D1*
X1448622Y853543D1*
Y829921D1*
X1440748Y822047D1*
G37*
G36*
X1392717Y813386D2*
Y804528D1*
X1379921Y791732D1*
X1392717Y778937D1*
Y770079D1*
X1400591Y777953D1*
X1424213D1*
X1432087Y770079D1*
Y778425D1*
X1440079D1*
X1426772Y791732D1*
X1440079Y805433D1*
X1432087D1*
Y813386D1*
X1424213Y805512D1*
X1400591D1*
X1392717Y813386D1*
G37*
G36*
X737008Y691732D2*
X762402Y666339D1*
X774094Y678031D1*
X782992D1*
X769291Y691732D1*
X782953Y705394D1*
X776063D1*
Y712283D1*
X762402Y698622D1*
X748701Y712323D1*
Y703425D1*
X737008Y691732D1*
G37*
G36*
X740748Y722047D2*
X749606D1*
X762402Y709252D1*
X775197Y722047D1*
X784055D1*
X776181Y729921D1*
Y753543D1*
X784055Y761417D1*
X775709D1*
Y769409D1*
X762402Y756102D1*
X748701Y769409D1*
Y761417D1*
X740748D1*
X748622Y753543D1*
Y729921D1*
X740748Y722047D1*
G37*
G36*
X692717Y713386D2*
Y704528D1*
X679921Y691732D1*
X692717Y678937D1*
Y670079D1*
X700591Y677953D1*
X724213D1*
X732087Y670079D1*
Y678425D1*
X740079D1*
X726772Y691732D1*
X740079Y705433D1*
X732087D1*
Y713386D1*
X724213Y705512D1*
X700591D1*
X692717Y713386D1*
G37*
G36*
X837008Y691732D2*
X862402Y666339D1*
X874094Y678031D1*
X882992D1*
X869291Y691732D1*
X882953Y705394D1*
X876063D1*
Y712283D1*
X862402Y698622D1*
X848701Y712323D1*
Y703425D1*
X837008Y691732D1*
G37*
G36*
X840748Y722047D2*
X849606D1*
X862402Y709252D1*
X875197Y722047D1*
X884055D1*
X876181Y729921D1*
Y753543D1*
X884055Y761417D1*
X875709D1*
Y769409D1*
X862402Y756102D1*
X848701Y769409D1*
Y761417D1*
X840748D1*
X848622Y753543D1*
Y729921D1*
X840748Y722047D1*
G37*
G36*
X792717Y713386D2*
Y704528D1*
X779921Y691732D1*
X792717Y678937D1*
Y670079D1*
X800591Y677953D1*
X824213D1*
X832087Y670079D1*
Y678425D1*
X840079D1*
X826772Y691732D1*
X840079Y705433D1*
X832087D1*
Y713386D1*
X824213Y705512D1*
X800591D1*
X792717Y713386D1*
G37*
G36*
X937008Y691732D2*
X962402Y666339D1*
X974094Y678031D1*
X982992D1*
X969291Y691732D1*
X982953Y705394D1*
X976063D1*
Y712283D1*
X962402Y698622D1*
X948701Y712323D1*
Y703425D1*
X937008Y691732D1*
G37*
G36*
X940748Y722047D2*
X949606D1*
X962402Y709252D1*
X975197Y722047D1*
X984055D1*
X976181Y729921D1*
Y753543D1*
X984055Y761417D1*
X975709D1*
Y769409D1*
X962402Y756102D1*
X948701Y769409D1*
Y761417D1*
X940748D1*
X948622Y753543D1*
Y729921D1*
X940748Y722047D1*
G37*
G36*
X892717Y713386D2*
Y704528D1*
X879921Y691732D1*
X892717Y678937D1*
Y670079D1*
X900591Y677953D1*
X924213D1*
X932087Y670079D1*
Y678425D1*
X940079D1*
X926772Y691732D1*
X940079Y705433D1*
X932087D1*
Y713386D1*
X924213Y705512D1*
X900591D1*
X892717Y713386D1*
G37*
G36*
X1037008Y691732D2*
X1062402Y666339D1*
X1074094Y678031D1*
X1082992D1*
X1069291Y691732D1*
X1082953Y705394D1*
X1076063D1*
Y712283D1*
X1062402Y698622D1*
X1048701Y712323D1*
Y703425D1*
X1037008Y691732D1*
G37*
G36*
X1040748Y722047D2*
X1049606D1*
X1062402Y709252D1*
X1075197Y722047D1*
X1084055D1*
X1076181Y729921D1*
Y753543D1*
X1084055Y761417D1*
X1075709D1*
Y769409D1*
X1062402Y756102D1*
X1048701Y769409D1*
Y761417D1*
X1040748D1*
X1048622Y753543D1*
Y729921D1*
X1040748Y722047D1*
G37*
G36*
X992717Y713386D2*
Y704528D1*
X979921Y691732D1*
X992717Y678937D1*
Y670079D1*
X1000591Y677953D1*
X1024213D1*
X1032087Y670079D1*
Y678425D1*
X1040079D1*
X1026772Y691732D1*
X1040079Y705433D1*
X1032087D1*
Y713386D1*
X1024213Y705512D1*
X1000591D1*
X992717Y713386D1*
G37*
G36*
X1137008Y691732D2*
X1162402Y666339D1*
X1174094Y678031D1*
X1182992D1*
X1169291Y691732D1*
X1182953Y705394D1*
X1176063D1*
Y712283D1*
X1162402Y698622D1*
X1148701Y712323D1*
Y703425D1*
X1137008Y691732D1*
G37*
G36*
X1140748Y722047D2*
X1149606D1*
X1162402Y709252D1*
X1175197Y722047D1*
X1184055D1*
X1176181Y729921D1*
Y753543D1*
X1184055Y761417D1*
X1175709D1*
Y769409D1*
X1162402Y756102D1*
X1148701Y769409D1*
Y761417D1*
X1140748D1*
X1148622Y753543D1*
Y729921D1*
X1140748Y722047D1*
G37*
G36*
X1092717Y713386D2*
Y704528D1*
X1079921Y691732D1*
X1092717Y678937D1*
Y670079D1*
X1100591Y677953D1*
X1124213D1*
X1132087Y670079D1*
Y678425D1*
X1140079D1*
X1126772Y691732D1*
X1140079Y705433D1*
X1132087D1*
Y713386D1*
X1124213Y705512D1*
X1100591D1*
X1092717Y713386D1*
G37*
G36*
X1237008Y691732D2*
X1262402Y666339D1*
X1274094Y678031D1*
X1282992D1*
X1269291Y691732D1*
X1282953Y705394D1*
X1276063D1*
Y712283D1*
X1262402Y698622D1*
X1248701Y712323D1*
Y703425D1*
X1237008Y691732D1*
G37*
G36*
X1240748Y722047D2*
X1249606D1*
X1262402Y709252D1*
X1275197Y722047D1*
X1284055D1*
X1276181Y729921D1*
Y753543D1*
X1284055Y761417D1*
X1275709D1*
Y769409D1*
X1262402Y756102D1*
X1248701Y769409D1*
Y761417D1*
X1240748D1*
X1248622Y753543D1*
Y729921D1*
X1240748Y722047D1*
G37*
G36*
X1192717Y713386D2*
Y704528D1*
X1179921Y691732D1*
X1192717Y678937D1*
Y670079D1*
X1200591Y677953D1*
X1224213D1*
X1232087Y670079D1*
Y678425D1*
X1240079D1*
X1226772Y691732D1*
X1240079Y705433D1*
X1232087D1*
Y713386D1*
X1224213Y705512D1*
X1200591D1*
X1192717Y713386D1*
G37*
G36*
X1337008Y691732D2*
X1362402Y666339D1*
X1374094Y678031D1*
X1382992D1*
X1369291Y691732D1*
X1382953Y705394D1*
X1376063D1*
Y712283D1*
X1362402Y698622D1*
X1348701Y712323D1*
Y703425D1*
X1337008Y691732D1*
G37*
G36*
X1340748Y722047D2*
X1349606D1*
X1362402Y709252D1*
X1375197Y722047D1*
X1384055D1*
X1376181Y729921D1*
Y753543D1*
X1384055Y761417D1*
X1375709D1*
Y769409D1*
X1362402Y756102D1*
X1348701Y769409D1*
Y761417D1*
X1340748D1*
X1348622Y753543D1*
Y729921D1*
X1340748Y722047D1*
G37*
G36*
X1292717Y713386D2*
Y704528D1*
X1279921Y691732D1*
X1292717Y678937D1*
Y670079D1*
X1300591Y677953D1*
X1324213D1*
X1332087Y670079D1*
Y678425D1*
X1340079D1*
X1326772Y691732D1*
X1340079Y705433D1*
X1332087D1*
Y713386D1*
X1324213Y705512D1*
X1300591D1*
X1292717Y713386D1*
G37*
G36*
X1437008Y691732D2*
X1462402Y666339D1*
X1474094Y678031D1*
X1482992D1*
X1469291Y691732D1*
X1482953Y705394D1*
X1476063D1*
Y712283D1*
X1462402Y698622D1*
X1448701Y712323D1*
Y703425D1*
X1437008Y691732D1*
G37*
G36*
X1440748Y722047D2*
X1449606D1*
X1462402Y709252D1*
X1475197Y722047D1*
X1484055D1*
X1476181Y729921D1*
Y753543D1*
X1484055Y761417D1*
X1475709D1*
Y769409D1*
X1462402Y756102D1*
X1448701Y769409D1*
Y761417D1*
X1440748D1*
X1448622Y753543D1*
Y729921D1*
X1440748Y722047D1*
G37*
G36*
X1392717Y713386D2*
Y704528D1*
X1379921Y691732D1*
X1392717Y678937D1*
Y670079D1*
X1400591Y677953D1*
X1424213D1*
X1432087Y670079D1*
Y678425D1*
X1440079D1*
X1426772Y691732D1*
X1440079Y705433D1*
X1432087D1*
Y713386D1*
X1424213Y705512D1*
X1400591D1*
X1392717Y713386D1*
G37*
G36*
X737008Y591732D2*
X762402Y566339D1*
X774094Y578031D1*
X782992D1*
X769291Y591732D1*
X782953Y605394D1*
X776063D1*
Y612283D1*
X762402Y598622D1*
X748701Y612323D1*
Y603425D1*
X737008Y591732D1*
G37*
G36*
X740748Y622047D2*
X749606D1*
X762402Y609252D1*
X775197Y622047D1*
X784055D1*
X776181Y629921D1*
Y653543D1*
X784055Y661417D1*
X775709D1*
Y669409D1*
X762402Y656102D1*
X748701Y669409D1*
Y661417D1*
X740748D1*
X748622Y653543D1*
Y629921D1*
X740748Y622047D1*
G37*
G36*
X692717Y613386D2*
Y604528D1*
X679921Y591732D1*
X692717Y578937D1*
Y570079D1*
X700591Y577953D1*
X724213D1*
X732087Y570079D1*
Y578425D1*
X740079D1*
X726772Y591732D1*
X740079Y605433D1*
X732087D1*
Y613386D1*
X724213Y605512D1*
X700591D1*
X692717Y613386D1*
G37*
G36*
X837008Y591732D2*
X862402Y566339D1*
X874094Y578031D1*
X882992D1*
X869291Y591732D1*
X882953Y605394D1*
X876063D1*
Y612283D1*
X862402Y598622D1*
X848701Y612323D1*
Y603425D1*
X837008Y591732D1*
G37*
G36*
X840748Y622047D2*
X849606D1*
X862402Y609252D1*
X875197Y622047D1*
X884055D1*
X876181Y629921D1*
Y653543D1*
X884055Y661417D1*
X875709D1*
Y669409D1*
X862402Y656102D1*
X848701Y669409D1*
Y661417D1*
X840748D1*
X848622Y653543D1*
Y629921D1*
X840748Y622047D1*
G37*
G36*
X792717Y613386D2*
Y604528D1*
X779921Y591732D1*
X792717Y578937D1*
Y570079D1*
X800591Y577953D1*
X824213D1*
X832087Y570079D1*
Y578425D1*
X840079D1*
X826772Y591732D1*
X840079Y605433D1*
X832087D1*
Y613386D1*
X824213Y605512D1*
X800591D1*
X792717Y613386D1*
G37*
G36*
X937008Y591732D2*
X962402Y566339D1*
X974094Y578031D1*
X982992D1*
X969291Y591732D1*
X982953Y605394D1*
X976063D1*
Y612283D1*
X962402Y598622D1*
X948701Y612323D1*
Y603425D1*
X937008Y591732D1*
G37*
G36*
X940748Y622047D2*
X949606D1*
X962402Y609252D1*
X975197Y622047D1*
X984055D1*
X976181Y629921D1*
Y653543D1*
X984055Y661417D1*
X975709D1*
Y669409D1*
X962402Y656102D1*
X948701Y669409D1*
Y661417D1*
X940748D1*
X948622Y653543D1*
Y629921D1*
X940748Y622047D1*
G37*
G36*
X892717Y613386D2*
Y604528D1*
X879921Y591732D1*
X892717Y578937D1*
Y570079D1*
X900591Y577953D1*
X924213D1*
X932087Y570079D1*
Y578425D1*
X940079D1*
X926772Y591732D1*
X940079Y605433D1*
X932087D1*
Y613386D1*
X924213Y605512D1*
X900591D1*
X892717Y613386D1*
G37*
G36*
X1037008Y591732D2*
X1062402Y566339D1*
X1074094Y578031D1*
X1082992D1*
X1069291Y591732D1*
X1082953Y605394D1*
X1076063D1*
Y612283D1*
X1062402Y598622D1*
X1048701Y612323D1*
Y603425D1*
X1037008Y591732D1*
G37*
G36*
X1040748Y622047D2*
X1049606D1*
X1062402Y609252D1*
X1075197Y622047D1*
X1084055D1*
X1076181Y629921D1*
Y653543D1*
X1084055Y661417D1*
X1075709D1*
Y669409D1*
X1062402Y656102D1*
X1048701Y669409D1*
Y661417D1*
X1040748D1*
X1048622Y653543D1*
Y629921D1*
X1040748Y622047D1*
G37*
G36*
X992717Y613386D2*
Y604528D1*
X979921Y591732D1*
X992717Y578937D1*
Y570079D1*
X1000591Y577953D1*
X1024213D1*
X1032087Y570079D1*
Y578425D1*
X1040079D1*
X1026772Y591732D1*
X1040079Y605433D1*
X1032087D1*
Y613386D1*
X1024213Y605512D1*
X1000591D1*
X992717Y613386D1*
G37*
G36*
X1137008Y591732D2*
X1162402Y566339D1*
X1174094Y578031D1*
X1182992D1*
X1169291Y591732D1*
X1182953Y605394D1*
X1176063D1*
Y612283D1*
X1162402Y598622D1*
X1148701Y612323D1*
Y603425D1*
X1137008Y591732D1*
G37*
G36*
X1140748Y622047D2*
X1149606D1*
X1162402Y609252D1*
X1175197Y622047D1*
X1184055D1*
X1176181Y629921D1*
Y653543D1*
X1184055Y661417D1*
X1175709D1*
Y669409D1*
X1162402Y656102D1*
X1148701Y669409D1*
Y661417D1*
X1140748D1*
X1148622Y653543D1*
Y629921D1*
X1140748Y622047D1*
G37*
G36*
X1092717Y613386D2*
Y604528D1*
X1079921Y591732D1*
X1092717Y578937D1*
Y570079D1*
X1100591Y577953D1*
X1124213D1*
X1132087Y570079D1*
Y578425D1*
X1140079D1*
X1126772Y591732D1*
X1140079Y605433D1*
X1132087D1*
Y613386D1*
X1124213Y605512D1*
X1100591D1*
X1092717Y613386D1*
G37*
G36*
X1237008Y591732D2*
X1262402Y566339D1*
X1274094Y578031D1*
X1282992D1*
X1269291Y591732D1*
X1282953Y605394D1*
X1276063D1*
Y612283D1*
X1262402Y598622D1*
X1248701Y612323D1*
Y603425D1*
X1237008Y591732D1*
G37*
G36*
X1240748Y622047D2*
X1249606D1*
X1262402Y609252D1*
X1275197Y622047D1*
X1284055D1*
X1276181Y629921D1*
Y653543D1*
X1284055Y661417D1*
X1275709D1*
Y669409D1*
X1262402Y656102D1*
X1248701Y669409D1*
Y661417D1*
X1240748D1*
X1248622Y653543D1*
Y629921D1*
X1240748Y622047D1*
G37*
G36*
X1192717Y613386D2*
Y604528D1*
X1179921Y591732D1*
X1192717Y578937D1*
Y570079D1*
X1200591Y577953D1*
X1224213D1*
X1232087Y570079D1*
Y578425D1*
X1240079D1*
X1226772Y591732D1*
X1240079Y605433D1*
X1232087D1*
Y613386D1*
X1224213Y605512D1*
X1200591D1*
X1192717Y613386D1*
G37*
G36*
X1337008Y591732D2*
X1362402Y566339D1*
X1374094Y578031D1*
X1382992D1*
X1369291Y591732D1*
X1382953Y605394D1*
X1376063D1*
Y612283D1*
X1362402Y598622D1*
X1348701Y612323D1*
Y603425D1*
X1337008Y591732D1*
G37*
G36*
X1340748Y622047D2*
X1349606D1*
X1362402Y609252D1*
X1375197Y622047D1*
X1384055D1*
X1376181Y629921D1*
Y653543D1*
X1384055Y661417D1*
X1375709D1*
Y669409D1*
X1362402Y656102D1*
X1348701Y669409D1*
Y661417D1*
X1340748D1*
X1348622Y653543D1*
Y629921D1*
X1340748Y622047D1*
G37*
G36*
X1292717Y613386D2*
Y604528D1*
X1279921Y591732D1*
X1292717Y578937D1*
Y570079D1*
X1300591Y577953D1*
X1324213D1*
X1332087Y570079D1*
Y578425D1*
X1340079D1*
X1326772Y591732D1*
X1340079Y605433D1*
X1332087D1*
Y613386D1*
X1324213Y605512D1*
X1300591D1*
X1292717Y613386D1*
G37*
G36*
X1437008Y591732D2*
X1462402Y566339D1*
X1474094Y578031D1*
X1482992D1*
X1469291Y591732D1*
X1482953Y605394D1*
X1476063D1*
Y612283D1*
X1462402Y598622D1*
X1448701Y612323D1*
Y603425D1*
X1437008Y591732D1*
G37*
G36*
X1440748Y622047D2*
X1449606D1*
X1462402Y609252D1*
X1475197Y622047D1*
X1484055D1*
X1476181Y629921D1*
Y653543D1*
X1484055Y661417D1*
X1475709D1*
Y669409D1*
X1462402Y656102D1*
X1448701Y669409D1*
Y661417D1*
X1440748D1*
X1448622Y653543D1*
Y629921D1*
X1440748Y622047D1*
G37*
G36*
X1392717Y613386D2*
Y604528D1*
X1379921Y591732D1*
X1392717Y578937D1*
Y570079D1*
X1400591Y577953D1*
X1424213D1*
X1432087Y570079D1*
Y578425D1*
X1440079D1*
X1426772Y591732D1*
X1440079Y605433D1*
X1432087D1*
Y613386D1*
X1424213Y605512D1*
X1400591D1*
X1392717Y613386D1*
G37*
G36*
X737008Y491732D2*
X762402Y466339D1*
X774094Y478031D1*
X782992D1*
X769291Y491732D1*
X782953Y505394D1*
X776063D1*
Y512283D1*
X762402Y498622D1*
X748701Y512323D1*
Y503425D1*
X737008Y491732D1*
G37*
G36*
X740748Y522047D2*
X749606D1*
X762402Y509252D1*
X775197Y522047D1*
X784055D1*
X776181Y529921D1*
Y553543D1*
X784055Y561417D1*
X775709D1*
Y569409D1*
X762402Y556102D1*
X748701Y569409D1*
Y561417D1*
X740748D1*
X748622Y553543D1*
Y529921D1*
X740748Y522047D1*
G37*
G36*
X692717Y513386D2*
Y504528D1*
X679921Y491732D1*
X692717Y478937D1*
Y470079D1*
X700591Y477953D1*
X724213D1*
X732087Y470079D1*
Y478425D1*
X740079D1*
X726772Y491732D1*
X740079Y505433D1*
X732087D1*
Y513386D1*
X724213Y505512D1*
X700591D1*
X692717Y513386D1*
G37*
G36*
X837008Y491732D2*
X862402Y466339D1*
X874094Y478031D1*
X882992D1*
X869291Y491732D1*
X882953Y505394D1*
X876063D1*
Y512283D1*
X862402Y498622D1*
X848701Y512323D1*
Y503425D1*
X837008Y491732D1*
G37*
G36*
X840748Y522047D2*
X849606D1*
X862402Y509252D1*
X875197Y522047D1*
X884055D1*
X876181Y529921D1*
Y553543D1*
X884055Y561417D1*
X875709D1*
Y569409D1*
X862402Y556102D1*
X848701Y569409D1*
Y561417D1*
X840748D1*
X848622Y553543D1*
Y529921D1*
X840748Y522047D1*
G37*
G36*
X792717Y513386D2*
Y504528D1*
X779921Y491732D1*
X792717Y478937D1*
Y470079D1*
X800591Y477953D1*
X824213D1*
X832087Y470079D1*
Y478425D1*
X840079D1*
X826772Y491732D1*
X840079Y505433D1*
X832087D1*
Y513386D1*
X824213Y505512D1*
X800591D1*
X792717Y513386D1*
G37*
G36*
X937008Y491732D2*
X962402Y466339D1*
X974094Y478031D1*
X982992D1*
X969291Y491732D1*
X982953Y505394D1*
X976063D1*
Y512283D1*
X962402Y498622D1*
X948701Y512323D1*
Y503425D1*
X937008Y491732D1*
G37*
G36*
X940748Y522047D2*
X949606D1*
X962402Y509252D1*
X975197Y522047D1*
X984055D1*
X976181Y529921D1*
Y553543D1*
X984055Y561417D1*
X975709D1*
Y569409D1*
X962402Y556102D1*
X948701Y569409D1*
Y561417D1*
X940748D1*
X948622Y553543D1*
Y529921D1*
X940748Y522047D1*
G37*
G36*
X892717Y513386D2*
Y504528D1*
X879921Y491732D1*
X892717Y478937D1*
Y470079D1*
X900591Y477953D1*
X924213D1*
X932087Y470079D1*
Y478425D1*
X940079D1*
X926772Y491732D1*
X940079Y505433D1*
X932087D1*
Y513386D1*
X924213Y505512D1*
X900591D1*
X892717Y513386D1*
G37*
G36*
X1037008Y491732D2*
X1062402Y466339D1*
X1074094Y478031D1*
X1082992D1*
X1069291Y491732D1*
X1082953Y505394D1*
X1076063D1*
Y512283D1*
X1062402Y498622D1*
X1048701Y512323D1*
Y503425D1*
X1037008Y491732D1*
G37*
G36*
X1040748Y522047D2*
X1049606D1*
X1062402Y509252D1*
X1075197Y522047D1*
X1084055D1*
X1076181Y529921D1*
Y553543D1*
X1084055Y561417D1*
X1075709D1*
Y569409D1*
X1062402Y556102D1*
X1048701Y569409D1*
Y561417D1*
X1040748D1*
X1048622Y553543D1*
Y529921D1*
X1040748Y522047D1*
G37*
G36*
X992717Y513386D2*
Y504528D1*
X979921Y491732D1*
X992717Y478937D1*
Y470079D1*
X1000591Y477953D1*
X1024213D1*
X1032087Y470079D1*
Y478425D1*
X1040079D1*
X1026772Y491732D1*
X1040079Y505433D1*
X1032087D1*
Y513386D1*
X1024213Y505512D1*
X1000591D1*
X992717Y513386D1*
G37*
G36*
X1137008Y491732D2*
X1162402Y466339D1*
X1174094Y478031D1*
X1182992D1*
X1169291Y491732D1*
X1182953Y505394D1*
X1176063D1*
Y512283D1*
X1162402Y498622D1*
X1148701Y512323D1*
Y503425D1*
X1137008Y491732D1*
G37*
G36*
X1140748Y522047D2*
X1149606D1*
X1162402Y509252D1*
X1175197Y522047D1*
X1184055D1*
X1176181Y529921D1*
Y553543D1*
X1184055Y561417D1*
X1175709D1*
Y569409D1*
X1162402Y556102D1*
X1148701Y569409D1*
Y561417D1*
X1140748D1*
X1148622Y553543D1*
Y529921D1*
X1140748Y522047D1*
G37*
G36*
X1092717Y513386D2*
Y504528D1*
X1079921Y491732D1*
X1092717Y478937D1*
Y470079D1*
X1100591Y477953D1*
X1124213D1*
X1132087Y470079D1*
Y478425D1*
X1140079D1*
X1126772Y491732D1*
X1140079Y505433D1*
X1132087D1*
Y513386D1*
X1124213Y505512D1*
X1100591D1*
X1092717Y513386D1*
G37*
G36*
X1237008Y491732D2*
X1262402Y466339D1*
X1274094Y478031D1*
X1282992D1*
X1269291Y491732D1*
X1282953Y505394D1*
X1276063D1*
Y512283D1*
X1262402Y498622D1*
X1248701Y512323D1*
Y503425D1*
X1237008Y491732D1*
G37*
G36*
X1240748Y522047D2*
X1249606D1*
X1262402Y509252D1*
X1275197Y522047D1*
X1284055D1*
X1276181Y529921D1*
Y553543D1*
X1284055Y561417D1*
X1275709D1*
Y569409D1*
X1262402Y556102D1*
X1248701Y569409D1*
Y561417D1*
X1240748D1*
X1248622Y553543D1*
Y529921D1*
X1240748Y522047D1*
G37*
G36*
X1192717Y513386D2*
Y504528D1*
X1179921Y491732D1*
X1192717Y478937D1*
Y470079D1*
X1200591Y477953D1*
X1224213D1*
X1232087Y470079D1*
Y478425D1*
X1240079D1*
X1226772Y491732D1*
X1240079Y505433D1*
X1232087D1*
Y513386D1*
X1224213Y505512D1*
X1200591D1*
X1192717Y513386D1*
G37*
G36*
X1337008Y491732D2*
X1362402Y466339D1*
X1374094Y478031D1*
X1382992D1*
X1369291Y491732D1*
X1382953Y505394D1*
X1376063D1*
Y512283D1*
X1362402Y498622D1*
X1348701Y512323D1*
Y503425D1*
X1337008Y491732D1*
G37*
G36*
X1340748Y522047D2*
X1349606D1*
X1362402Y509252D1*
X1375197Y522047D1*
X1384055D1*
X1376181Y529921D1*
Y553543D1*
X1384055Y561417D1*
X1375709D1*
Y569409D1*
X1362402Y556102D1*
X1348701Y569409D1*
Y561417D1*
X1340748D1*
X1348622Y553543D1*
Y529921D1*
X1340748Y522047D1*
G37*
G36*
X1292717Y513386D2*
Y504528D1*
X1279921Y491732D1*
X1292717Y478937D1*
Y470079D1*
X1300591Y477953D1*
X1324213D1*
X1332087Y470079D1*
Y478425D1*
X1340079D1*
X1326772Y491732D1*
X1340079Y505433D1*
X1332087D1*
Y513386D1*
X1324213Y505512D1*
X1300591D1*
X1292717Y513386D1*
G37*
G36*
X1437008Y491732D2*
X1462402Y466339D1*
X1474094Y478031D1*
X1482992D1*
X1469291Y491732D1*
X1482953Y505394D1*
X1476063D1*
Y512283D1*
X1462402Y498622D1*
X1448701Y512323D1*
Y503425D1*
X1437008Y491732D1*
G37*
G36*
X1440748Y522047D2*
X1449606D1*
X1462402Y509252D1*
X1475197Y522047D1*
X1484055D1*
X1476181Y529921D1*
Y553543D1*
X1484055Y561417D1*
X1475709D1*
Y569409D1*
X1462402Y556102D1*
X1448701Y569409D1*
Y561417D1*
X1440748D1*
X1448622Y553543D1*
Y529921D1*
X1440748Y522047D1*
G37*
G36*
X1392717Y513386D2*
Y504528D1*
X1379921Y491732D1*
X1392717Y478937D1*
Y470079D1*
X1400591Y477953D1*
X1424213D1*
X1432087Y470079D1*
Y478425D1*
X1440079D1*
X1426772Y491732D1*
X1440079Y505433D1*
X1432087D1*
Y513386D1*
X1424213Y505512D1*
X1400591D1*
X1392717Y513386D1*
G37*
G36*
X737008Y991732D2*
X762402Y966339D1*
X774094Y978031D1*
X782992D1*
X769291Y991732D1*
X782953Y1005394D1*
X776063D1*
Y1012283D1*
X762402Y998622D1*
X748701Y1012323D1*
Y1003425D1*
X737008Y991732D1*
G37*
G36*
X740748Y1022047D2*
X749606D1*
X762402Y1009252D1*
X775197Y1022047D1*
X784055D1*
X776181Y1029921D1*
Y1053543D1*
X784055Y1061417D1*
X775709D1*
Y1069409D1*
X762402Y1056102D1*
X748701Y1069409D1*
Y1061417D1*
X740748D1*
X748622Y1053543D1*
Y1029921D1*
X740748Y1022047D1*
G37*
G36*
X692717Y1013386D2*
Y1004528D1*
X679921Y991732D1*
X692717Y978937D1*
Y970079D1*
X700591Y977953D1*
X724213D1*
X732087Y970079D1*
Y978425D1*
X740079D1*
X726772Y991732D1*
X740079Y1005433D1*
X732087D1*
Y1013386D1*
X724213Y1005512D1*
X700591D1*
X692717Y1013386D1*
G37*
G36*
X837008Y991732D2*
X862402Y966339D1*
X874094Y978031D1*
X882992D1*
X869291Y991732D1*
X882953Y1005394D1*
X876063D1*
Y1012283D1*
X862402Y998622D1*
X848701Y1012323D1*
Y1003425D1*
X837008Y991732D1*
G37*
G36*
X840748Y1022047D2*
X849606D1*
X862402Y1009252D1*
X875197Y1022047D1*
X884055D1*
X876181Y1029921D1*
Y1053543D1*
X884055Y1061417D1*
X875709D1*
Y1069409D1*
X862402Y1056102D1*
X848701Y1069409D1*
Y1061417D1*
X840748D1*
X848622Y1053543D1*
Y1029921D1*
X840748Y1022047D1*
G37*
G36*
X792717Y1013386D2*
Y1004528D1*
X779921Y991732D1*
X792717Y978937D1*
Y970079D1*
X800591Y977953D1*
X824213D1*
X832087Y970079D1*
Y978425D1*
X840079D1*
X826772Y991732D1*
X840079Y1005433D1*
X832087D1*
Y1013386D1*
X824213Y1005512D1*
X800591D1*
X792717Y1013386D1*
G37*
G36*
X937008Y991732D2*
X962402Y966339D1*
X974094Y978031D1*
X982992D1*
X969291Y991732D1*
X982953Y1005394D1*
X976063D1*
Y1012283D1*
X962402Y998622D1*
X948701Y1012323D1*
Y1003425D1*
X937008Y991732D1*
G37*
G36*
X940748Y1022047D2*
X949606D1*
X962402Y1009252D1*
X975197Y1022047D1*
X984055D1*
X976181Y1029921D1*
Y1053543D1*
X984055Y1061417D1*
X975709D1*
Y1069409D1*
X962402Y1056102D1*
X948701Y1069409D1*
Y1061417D1*
X940748D1*
X948622Y1053543D1*
Y1029921D1*
X940748Y1022047D1*
G37*
G36*
X892717Y1013386D2*
Y1004528D1*
X879921Y991732D1*
X892717Y978937D1*
Y970079D1*
X900591Y977953D1*
X924213D1*
X932087Y970079D1*
Y978425D1*
X940079D1*
X926772Y991732D1*
X940079Y1005433D1*
X932087D1*
Y1013386D1*
X924213Y1005512D1*
X900591D1*
X892717Y1013386D1*
G37*
G36*
X1037008Y991732D2*
X1062402Y966339D1*
X1074094Y978031D1*
X1082992D1*
X1069291Y991732D1*
X1082953Y1005394D1*
X1076063D1*
Y1012283D1*
X1062402Y998622D1*
X1048701Y1012323D1*
Y1003425D1*
X1037008Y991732D1*
G37*
G36*
X1040748Y1022047D2*
X1049606D1*
X1062402Y1009252D1*
X1075197Y1022047D1*
X1084055D1*
X1076181Y1029921D1*
Y1053543D1*
X1084055Y1061417D1*
X1075709D1*
Y1069409D1*
X1062402Y1056102D1*
X1048701Y1069409D1*
Y1061417D1*
X1040748D1*
X1048622Y1053543D1*
Y1029921D1*
X1040748Y1022047D1*
G37*
G36*
X992717Y1013386D2*
Y1004528D1*
X979921Y991732D1*
X992717Y978937D1*
Y970079D1*
X1000591Y977953D1*
X1024213D1*
X1032087Y970079D1*
Y978425D1*
X1040079D1*
X1026772Y991732D1*
X1040079Y1005433D1*
X1032087D1*
Y1013386D1*
X1024213Y1005512D1*
X1000591D1*
X992717Y1013386D1*
G37*
G36*
X1137008Y991732D2*
X1162402Y966339D1*
X1174094Y978031D1*
X1182992D1*
X1169291Y991732D1*
X1182953Y1005394D1*
X1176063D1*
Y1012283D1*
X1162402Y998622D1*
X1148701Y1012323D1*
Y1003425D1*
X1137008Y991732D1*
G37*
G36*
X1140748Y1022047D2*
X1149606D1*
X1162402Y1009252D1*
X1175197Y1022047D1*
X1184055D1*
X1176181Y1029921D1*
Y1053543D1*
X1184055Y1061417D1*
X1175709D1*
Y1069409D1*
X1162402Y1056102D1*
X1148701Y1069409D1*
Y1061417D1*
X1140748D1*
X1148622Y1053543D1*
Y1029921D1*
X1140748Y1022047D1*
G37*
G36*
X1092717Y1013386D2*
Y1004528D1*
X1079921Y991732D1*
X1092717Y978937D1*
Y970079D1*
X1100591Y977953D1*
X1124213D1*
X1132087Y970079D1*
Y978425D1*
X1140079D1*
X1126772Y991732D1*
X1140079Y1005433D1*
X1132087D1*
Y1013386D1*
X1124213Y1005512D1*
X1100591D1*
X1092717Y1013386D1*
G37*
G36*
X1237008Y991732D2*
X1262402Y966339D1*
X1274094Y978031D1*
X1282992D1*
X1269291Y991732D1*
X1282953Y1005394D1*
X1276063D1*
Y1012283D1*
X1262402Y998622D1*
X1248701Y1012323D1*
Y1003425D1*
X1237008Y991732D1*
G37*
G36*
X1240748Y1022047D2*
X1249606D1*
X1262402Y1009252D1*
X1275197Y1022047D1*
X1284055D1*
X1276181Y1029921D1*
Y1053543D1*
X1284055Y1061417D1*
X1275709D1*
Y1069409D1*
X1262402Y1056102D1*
X1248701Y1069409D1*
Y1061417D1*
X1240748D1*
X1248622Y1053543D1*
Y1029921D1*
X1240748Y1022047D1*
G37*
G36*
X1192717Y1013386D2*
Y1004528D1*
X1179921Y991732D1*
X1192717Y978937D1*
Y970079D1*
X1200591Y977953D1*
X1224213D1*
X1232087Y970079D1*
Y978425D1*
X1240079D1*
X1226772Y991732D1*
X1240079Y1005433D1*
X1232087D1*
Y1013386D1*
X1224213Y1005512D1*
X1200591D1*
X1192717Y1013386D1*
G37*
G36*
X1337008Y991732D2*
X1362402Y966339D1*
X1374094Y978031D1*
X1382992D1*
X1369291Y991732D1*
X1382953Y1005394D1*
X1376063D1*
Y1012283D1*
X1362402Y998622D1*
X1348701Y1012323D1*
Y1003425D1*
X1337008Y991732D1*
G37*
G36*
X1340748Y1022047D2*
X1349606D1*
X1362402Y1009252D1*
X1375197Y1022047D1*
X1384055D1*
X1376181Y1029921D1*
Y1053543D1*
X1384055Y1061417D1*
X1375709D1*
Y1069409D1*
X1362402Y1056102D1*
X1348701Y1069409D1*
Y1061417D1*
X1340748D1*
X1348622Y1053543D1*
Y1029921D1*
X1340748Y1022047D1*
G37*
G36*
X1292717Y1013386D2*
Y1004528D1*
X1279921Y991732D1*
X1292717Y978937D1*
Y970079D1*
X1300591Y977953D1*
X1324213D1*
X1332087Y970079D1*
Y978425D1*
X1340079D1*
X1326772Y991732D1*
X1340079Y1005433D1*
X1332087D1*
Y1013386D1*
X1324213Y1005512D1*
X1300591D1*
X1292717Y1013386D1*
G37*
G36*
X1437008Y991732D2*
X1462402Y966339D1*
X1474094Y978031D1*
X1482992D1*
X1469291Y991732D1*
X1482953Y1005394D1*
X1476063D1*
Y1012283D1*
X1462402Y998622D1*
X1448701Y1012323D1*
Y1003425D1*
X1437008Y991732D1*
G37*
G36*
X1440748Y1022047D2*
X1449606D1*
X1462402Y1009252D1*
X1475197Y1022047D1*
X1484055D1*
X1476181Y1029921D1*
Y1053543D1*
X1484055Y1061417D1*
X1475709D1*
Y1069409D1*
X1462402Y1056102D1*
X1448701Y1069409D1*
Y1061417D1*
X1440748D1*
X1448622Y1053543D1*
Y1029921D1*
X1440748Y1022047D1*
G37*
G36*
X1392717Y1013386D2*
Y1004528D1*
X1379921Y991732D1*
X1392717Y978937D1*
Y970079D1*
X1400591Y977953D1*
X1424213D1*
X1432087Y970079D1*
Y978425D1*
X1440079D1*
X1426772Y991732D1*
X1440079Y1005433D1*
X1432087D1*
Y1013386D1*
X1424213Y1005512D1*
X1400591D1*
X1392717Y1013386D1*
G37*
M02*
