G04 DipTrace 5.1.0.1*
G04 BottomMask.gbs*
%MOIN*%
G04 #@! TF.FileFunction,Soldermask,Bot*
G04 #@! TF.Part,Single*
%ADD16C,0.098425*%
%ADD19C,0.059055*%
%FSLAX26Y26*%
G04*
G70*
G90*
G75*
G01*
G04 BotMask*
%LPD*%
D16*
X487402Y1041732D3*
X1637402D3*
G36*
X690748Y918138D2*
Y905343D1*
X677138Y891732D1*
X690748Y878122D1*
Y865327D1*
X701406Y875984D1*
X723398D1*
X734055Y865327D1*
Y876457D1*
X744831D1*
X729535Y891752D1*
X744735Y907402D1*
X734055D1*
Y918138D1*
X723398Y907480D1*
X701406D1*
X690748Y918138D1*
G37*
G36*
X734224Y891732D2*
X762402Y863555D1*
X774909Y876063D1*
X787744D1*
X772075Y891732D1*
X787705Y907362D1*
X778031D1*
Y917035D1*
X762402Y901406D1*
X746732Y917075D1*
Y904240D1*
X734224Y891732D1*
G37*
G36*
X735996Y920079D2*
X748791D1*
X762402Y906469D1*
X776012Y920079D1*
X788807D1*
X778150Y930736D1*
Y952728D1*
X788807Y963386D1*
X777677D1*
Y974161D1*
X762382Y958866D1*
X746732Y974066D1*
Y963386D1*
X735996D1*
X746654Y952728D1*
Y930736D1*
X735996Y920079D1*
G37*
G36*
X790748Y918138D2*
Y905343D1*
X777138Y891732D1*
X790748Y878122D1*
Y865327D1*
X801406Y875984D1*
X823398D1*
X834055Y865327D1*
Y876457D1*
X844831D1*
X829535Y891752D1*
X844735Y907402D1*
X834055D1*
Y918138D1*
X823398Y907480D1*
X801406D1*
X790748Y918138D1*
G37*
G36*
X834224Y891732D2*
X862402Y863555D1*
X874909Y876063D1*
X887744D1*
X872075Y891732D1*
X887705Y907362D1*
X878031D1*
Y917035D1*
X862402Y901406D1*
X846732Y917075D1*
Y904240D1*
X834224Y891732D1*
G37*
G36*
X835996Y920079D2*
X848791D1*
X862402Y906469D1*
X876012Y920079D1*
X888807D1*
X878150Y930736D1*
Y952728D1*
X888807Y963386D1*
X877677D1*
Y974161D1*
X862382Y958866D1*
X846732Y974066D1*
Y963386D1*
X835996D1*
X846654Y952728D1*
Y930736D1*
X835996Y920079D1*
G37*
G36*
X890748Y918138D2*
Y905343D1*
X877138Y891732D1*
X890748Y878122D1*
Y865327D1*
X901406Y875984D1*
X923398D1*
X934055Y865327D1*
Y876457D1*
X944831D1*
X929535Y891752D1*
X944735Y907402D1*
X934055D1*
Y918138D1*
X923398Y907480D1*
X901406D1*
X890748Y918138D1*
G37*
G36*
X934224Y891732D2*
X962402Y863555D1*
X974909Y876063D1*
X987744D1*
X972075Y891732D1*
X987705Y907362D1*
X978031D1*
Y917035D1*
X962402Y901406D1*
X946732Y917075D1*
Y904240D1*
X934224Y891732D1*
G37*
G36*
X935996Y920079D2*
X948791D1*
X962402Y906469D1*
X976012Y920079D1*
X988807D1*
X978150Y930736D1*
Y952728D1*
X988807Y963386D1*
X977677D1*
Y974161D1*
X962382Y958866D1*
X946732Y974066D1*
Y963386D1*
X935996D1*
X946654Y952728D1*
Y930736D1*
X935996Y920079D1*
G37*
G36*
X990748Y918138D2*
Y905343D1*
X977138Y891732D1*
X990748Y878122D1*
Y865327D1*
X1001406Y875984D1*
X1023398D1*
X1034055Y865327D1*
Y876457D1*
X1044831D1*
X1029535Y891752D1*
X1044735Y907402D1*
X1034055D1*
Y918138D1*
X1023398Y907480D1*
X1001406D1*
X990748Y918138D1*
G37*
G36*
X1034224Y891732D2*
X1062402Y863555D1*
X1074909Y876063D1*
X1087744D1*
X1072075Y891732D1*
X1087705Y907362D1*
X1078031D1*
Y917035D1*
X1062402Y901406D1*
X1046732Y917075D1*
Y904240D1*
X1034224Y891732D1*
G37*
G36*
X1035996Y920079D2*
X1048791D1*
X1062402Y906469D1*
X1076012Y920079D1*
X1088807D1*
X1078150Y930736D1*
Y952728D1*
X1088807Y963386D1*
X1077677D1*
Y974161D1*
X1062382Y958866D1*
X1046732Y974066D1*
Y963386D1*
X1035996D1*
X1046654Y952728D1*
Y930736D1*
X1035996Y920079D1*
G37*
G36*
X1090748Y918138D2*
Y905343D1*
X1077138Y891732D1*
X1090748Y878122D1*
Y865327D1*
X1101406Y875984D1*
X1123398D1*
X1134055Y865327D1*
Y876457D1*
X1144831D1*
X1129535Y891752D1*
X1144735Y907402D1*
X1134055D1*
Y918138D1*
X1123398Y907480D1*
X1101406D1*
X1090748Y918138D1*
G37*
G36*
X1134224Y891732D2*
X1162402Y863555D1*
X1174909Y876063D1*
X1187744D1*
X1172075Y891732D1*
X1187705Y907362D1*
X1178031D1*
Y917035D1*
X1162402Y901406D1*
X1146732Y917075D1*
Y904240D1*
X1134224Y891732D1*
G37*
G36*
X1135996Y920079D2*
X1148791D1*
X1162402Y906469D1*
X1176012Y920079D1*
X1188807D1*
X1178150Y930736D1*
Y952728D1*
X1188807Y963386D1*
X1177677D1*
Y974161D1*
X1162382Y958866D1*
X1146732Y974066D1*
Y963386D1*
X1135996D1*
X1146654Y952728D1*
Y930736D1*
X1135996Y920079D1*
G37*
G36*
X1190748Y918138D2*
Y905343D1*
X1177138Y891732D1*
X1190748Y878122D1*
Y865327D1*
X1201406Y875984D1*
X1223398D1*
X1234055Y865327D1*
Y876457D1*
X1244831D1*
X1229535Y891752D1*
X1244735Y907402D1*
X1234055D1*
Y918138D1*
X1223398Y907480D1*
X1201406D1*
X1190748Y918138D1*
G37*
G36*
X1234224Y891732D2*
X1262402Y863555D1*
X1274909Y876063D1*
X1287744D1*
X1272075Y891732D1*
X1287705Y907362D1*
X1278031D1*
Y917035D1*
X1262402Y901406D1*
X1246732Y917075D1*
Y904240D1*
X1234224Y891732D1*
G37*
G36*
X1235996Y920079D2*
X1248791D1*
X1262402Y906469D1*
X1276012Y920079D1*
X1288807D1*
X1278150Y930736D1*
Y952728D1*
X1288807Y963386D1*
X1277677D1*
Y974161D1*
X1262382Y958866D1*
X1246732Y974066D1*
Y963386D1*
X1235996D1*
X1246654Y952728D1*
Y930736D1*
X1235996Y920079D1*
G37*
G36*
X1290748Y918138D2*
Y905343D1*
X1277138Y891732D1*
X1290748Y878122D1*
Y865327D1*
X1301406Y875984D1*
X1323398D1*
X1334055Y865327D1*
Y876457D1*
X1344831D1*
X1329535Y891752D1*
X1344735Y907402D1*
X1334055D1*
Y918138D1*
X1323398Y907480D1*
X1301406D1*
X1290748Y918138D1*
G37*
G36*
X1334224Y891732D2*
X1362402Y863555D1*
X1374909Y876063D1*
X1387744D1*
X1372075Y891732D1*
X1387705Y907362D1*
X1378031D1*
Y917035D1*
X1362402Y901406D1*
X1346732Y917075D1*
Y904240D1*
X1334224Y891732D1*
G37*
G36*
X1335996Y920079D2*
X1348791D1*
X1362402Y906469D1*
X1376012Y920079D1*
X1388807D1*
X1378150Y930736D1*
Y952728D1*
X1388807Y963386D1*
X1377677D1*
Y974161D1*
X1362382Y958866D1*
X1346732Y974066D1*
Y963386D1*
X1335996D1*
X1346654Y952728D1*
Y930736D1*
X1335996Y920079D1*
G37*
G36*
X1390748Y918138D2*
Y905343D1*
X1377138Y891732D1*
X1390748Y878122D1*
Y865327D1*
X1401406Y875984D1*
X1423398D1*
X1434055Y865327D1*
Y876457D1*
X1444831D1*
X1429535Y891752D1*
X1444735Y907402D1*
X1434055D1*
Y918138D1*
X1423398Y907480D1*
X1401406D1*
X1390748Y918138D1*
G37*
G36*
X1434224Y891732D2*
X1462402Y863555D1*
X1474909Y876063D1*
X1487744D1*
X1472075Y891732D1*
X1487705Y907362D1*
X1478031D1*
Y917035D1*
X1462402Y901406D1*
X1446732Y917075D1*
Y904240D1*
X1434224Y891732D1*
G37*
G36*
X1435996Y920079D2*
X1448791D1*
X1462402Y906469D1*
X1476012Y920079D1*
X1488807D1*
X1478150Y930736D1*
Y952728D1*
X1488807Y963386D1*
X1477677D1*
Y974161D1*
X1462382Y958866D1*
X1446732Y974066D1*
Y963386D1*
X1435996D1*
X1446654Y952728D1*
Y930736D1*
X1435996Y920079D1*
G37*
D19*
X712402Y941732D3*
X812402D3*
X912402D3*
X1012402D3*
X1112402D3*
X1212402D3*
X1312402D3*
X1412402D3*
G36*
X690748Y818138D2*
Y805343D1*
X677138Y791732D1*
X690748Y778122D1*
Y765327D1*
X701406Y775984D1*
X723398D1*
X734055Y765327D1*
Y776457D1*
X744831D1*
X729535Y791752D1*
X744735Y807402D1*
X734055D1*
Y818138D1*
X723398Y807480D1*
X701406D1*
X690748Y818138D1*
G37*
G36*
X734224Y791732D2*
X762402Y763555D1*
X774909Y776063D1*
X787744D1*
X772075Y791732D1*
X787705Y807362D1*
X778031D1*
Y817035D1*
X762402Y801406D1*
X746732Y817075D1*
Y804240D1*
X734224Y791732D1*
G37*
G36*
X735996Y820079D2*
X748791D1*
X762402Y806469D1*
X776012Y820079D1*
X788807D1*
X778150Y830736D1*
Y852728D1*
X788807Y863386D1*
X777677D1*
Y874161D1*
X762382Y858866D1*
X746732Y874066D1*
Y863386D1*
X735996D1*
X746654Y852728D1*
Y830736D1*
X735996Y820079D1*
G37*
G36*
X790748Y818138D2*
Y805343D1*
X777138Y791732D1*
X790748Y778122D1*
Y765327D1*
X801406Y775984D1*
X823398D1*
X834055Y765327D1*
Y776457D1*
X844831D1*
X829535Y791752D1*
X844735Y807402D1*
X834055D1*
Y818138D1*
X823398Y807480D1*
X801406D1*
X790748Y818138D1*
G37*
G36*
X834224Y791732D2*
X862402Y763555D1*
X874909Y776063D1*
X887744D1*
X872075Y791732D1*
X887705Y807362D1*
X878031D1*
Y817035D1*
X862402Y801406D1*
X846732Y817075D1*
Y804240D1*
X834224Y791732D1*
G37*
G36*
X835996Y820079D2*
X848791D1*
X862402Y806469D1*
X876012Y820079D1*
X888807D1*
X878150Y830736D1*
Y852728D1*
X888807Y863386D1*
X877677D1*
Y874161D1*
X862382Y858866D1*
X846732Y874066D1*
Y863386D1*
X835996D1*
X846654Y852728D1*
Y830736D1*
X835996Y820079D1*
G37*
G36*
X890748Y818138D2*
Y805343D1*
X877138Y791732D1*
X890748Y778122D1*
Y765327D1*
X901406Y775984D1*
X923398D1*
X934055Y765327D1*
Y776457D1*
X944831D1*
X929535Y791752D1*
X944735Y807402D1*
X934055D1*
Y818138D1*
X923398Y807480D1*
X901406D1*
X890748Y818138D1*
G37*
G36*
X934224Y791732D2*
X962402Y763555D1*
X974909Y776063D1*
X987744D1*
X972075Y791732D1*
X987705Y807362D1*
X978031D1*
Y817035D1*
X962402Y801406D1*
X946732Y817075D1*
Y804240D1*
X934224Y791732D1*
G37*
G36*
X935996Y820079D2*
X948791D1*
X962402Y806469D1*
X976012Y820079D1*
X988807D1*
X978150Y830736D1*
Y852728D1*
X988807Y863386D1*
X977677D1*
Y874161D1*
X962382Y858866D1*
X946732Y874066D1*
Y863386D1*
X935996D1*
X946654Y852728D1*
Y830736D1*
X935996Y820079D1*
G37*
G36*
X990748Y818138D2*
Y805343D1*
X977138Y791732D1*
X990748Y778122D1*
Y765327D1*
X1001406Y775984D1*
X1023398D1*
X1034055Y765327D1*
Y776457D1*
X1044831D1*
X1029535Y791752D1*
X1044735Y807402D1*
X1034055D1*
Y818138D1*
X1023398Y807480D1*
X1001406D1*
X990748Y818138D1*
G37*
G36*
X1034224Y791732D2*
X1062402Y763555D1*
X1074909Y776063D1*
X1087744D1*
X1072075Y791732D1*
X1087705Y807362D1*
X1078031D1*
Y817035D1*
X1062402Y801406D1*
X1046732Y817075D1*
Y804240D1*
X1034224Y791732D1*
G37*
G36*
X1035996Y820079D2*
X1048791D1*
X1062402Y806469D1*
X1076012Y820079D1*
X1088807D1*
X1078150Y830736D1*
Y852728D1*
X1088807Y863386D1*
X1077677D1*
Y874161D1*
X1062382Y858866D1*
X1046732Y874066D1*
Y863386D1*
X1035996D1*
X1046654Y852728D1*
Y830736D1*
X1035996Y820079D1*
G37*
G36*
X1090748Y818138D2*
Y805343D1*
X1077138Y791732D1*
X1090748Y778122D1*
Y765327D1*
X1101406Y775984D1*
X1123398D1*
X1134055Y765327D1*
Y776457D1*
X1144831D1*
X1129535Y791752D1*
X1144735Y807402D1*
X1134055D1*
Y818138D1*
X1123398Y807480D1*
X1101406D1*
X1090748Y818138D1*
G37*
G36*
X1134224Y791732D2*
X1162402Y763555D1*
X1174909Y776063D1*
X1187744D1*
X1172075Y791732D1*
X1187705Y807362D1*
X1178031D1*
Y817035D1*
X1162402Y801406D1*
X1146732Y817075D1*
Y804240D1*
X1134224Y791732D1*
G37*
G36*
X1135996Y820079D2*
X1148791D1*
X1162402Y806469D1*
X1176012Y820079D1*
X1188807D1*
X1178150Y830736D1*
Y852728D1*
X1188807Y863386D1*
X1177677D1*
Y874161D1*
X1162382Y858866D1*
X1146732Y874066D1*
Y863386D1*
X1135996D1*
X1146654Y852728D1*
Y830736D1*
X1135996Y820079D1*
G37*
G36*
X1190748Y818138D2*
Y805343D1*
X1177138Y791732D1*
X1190748Y778122D1*
Y765327D1*
X1201406Y775984D1*
X1223398D1*
X1234055Y765327D1*
Y776457D1*
X1244831D1*
X1229535Y791752D1*
X1244735Y807402D1*
X1234055D1*
Y818138D1*
X1223398Y807480D1*
X1201406D1*
X1190748Y818138D1*
G37*
G36*
X1234224Y791732D2*
X1262402Y763555D1*
X1274909Y776063D1*
X1287744D1*
X1272075Y791732D1*
X1287705Y807362D1*
X1278031D1*
Y817035D1*
X1262402Y801406D1*
X1246732Y817075D1*
Y804240D1*
X1234224Y791732D1*
G37*
G36*
X1235996Y820079D2*
X1248791D1*
X1262402Y806469D1*
X1276012Y820079D1*
X1288807D1*
X1278150Y830736D1*
Y852728D1*
X1288807Y863386D1*
X1277677D1*
Y874161D1*
X1262382Y858866D1*
X1246732Y874066D1*
Y863386D1*
X1235996D1*
X1246654Y852728D1*
Y830736D1*
X1235996Y820079D1*
G37*
G36*
X1290748Y818138D2*
Y805343D1*
X1277138Y791732D1*
X1290748Y778122D1*
Y765327D1*
X1301406Y775984D1*
X1323398D1*
X1334055Y765327D1*
Y776457D1*
X1344831D1*
X1329535Y791752D1*
X1344735Y807402D1*
X1334055D1*
Y818138D1*
X1323398Y807480D1*
X1301406D1*
X1290748Y818138D1*
G37*
G36*
X1334224Y791732D2*
X1362402Y763555D1*
X1374909Y776063D1*
X1387744D1*
X1372075Y791732D1*
X1387705Y807362D1*
X1378031D1*
Y817035D1*
X1362402Y801406D1*
X1346732Y817075D1*
Y804240D1*
X1334224Y791732D1*
G37*
G36*
X1335996Y820079D2*
X1348791D1*
X1362402Y806469D1*
X1376012Y820079D1*
X1388807D1*
X1378150Y830736D1*
Y852728D1*
X1388807Y863386D1*
X1377677D1*
Y874161D1*
X1362382Y858866D1*
X1346732Y874066D1*
Y863386D1*
X1335996D1*
X1346654Y852728D1*
Y830736D1*
X1335996Y820079D1*
G37*
G36*
X1390748Y818138D2*
Y805343D1*
X1377138Y791732D1*
X1390748Y778122D1*
Y765327D1*
X1401406Y775984D1*
X1423398D1*
X1434055Y765327D1*
Y776457D1*
X1444831D1*
X1429535Y791752D1*
X1444735Y807402D1*
X1434055D1*
Y818138D1*
X1423398Y807480D1*
X1401406D1*
X1390748Y818138D1*
G37*
G36*
X1434224Y791732D2*
X1462402Y763555D1*
X1474909Y776063D1*
X1487744D1*
X1472075Y791732D1*
X1487705Y807362D1*
X1478031D1*
Y817035D1*
X1462402Y801406D1*
X1446732Y817075D1*
Y804240D1*
X1434224Y791732D1*
G37*
G36*
X1435996Y820079D2*
X1448791D1*
X1462402Y806469D1*
X1476012Y820079D1*
X1488807D1*
X1478150Y830736D1*
Y852728D1*
X1488807Y863386D1*
X1477677D1*
Y874161D1*
X1462382Y858866D1*
X1446732Y874066D1*
Y863386D1*
X1435996D1*
X1446654Y852728D1*
Y830736D1*
X1435996Y820079D1*
G37*
D19*
X712402Y841732D3*
X812402D3*
X912402D3*
X1012402D3*
X1112402D3*
X1212402D3*
X1312402D3*
X1412402D3*
G36*
X690748Y718138D2*
Y705343D1*
X677138Y691732D1*
X690748Y678122D1*
Y665327D1*
X701406Y675984D1*
X723398D1*
X734055Y665327D1*
Y676457D1*
X744831D1*
X729535Y691752D1*
X744735Y707402D1*
X734055D1*
Y718138D1*
X723398Y707480D1*
X701406D1*
X690748Y718138D1*
G37*
G36*
X734224Y691732D2*
X762402Y663555D1*
X774909Y676063D1*
X787744D1*
X772075Y691732D1*
X787705Y707362D1*
X778031D1*
Y717035D1*
X762402Y701406D1*
X746732Y717075D1*
Y704240D1*
X734224Y691732D1*
G37*
G36*
X735996Y720079D2*
X748791D1*
X762402Y706469D1*
X776012Y720079D1*
X788807D1*
X778150Y730736D1*
Y752728D1*
X788807Y763386D1*
X777677D1*
Y774161D1*
X762382Y758866D1*
X746732Y774066D1*
Y763386D1*
X735996D1*
X746654Y752728D1*
Y730736D1*
X735996Y720079D1*
G37*
G36*
X790748Y718138D2*
Y705343D1*
X777138Y691732D1*
X790748Y678122D1*
Y665327D1*
X801406Y675984D1*
X823398D1*
X834055Y665327D1*
Y676457D1*
X844831D1*
X829535Y691752D1*
X844735Y707402D1*
X834055D1*
Y718138D1*
X823398Y707480D1*
X801406D1*
X790748Y718138D1*
G37*
G36*
X834224Y691732D2*
X862402Y663555D1*
X874909Y676063D1*
X887744D1*
X872075Y691732D1*
X887705Y707362D1*
X878031D1*
Y717035D1*
X862402Y701406D1*
X846732Y717075D1*
Y704240D1*
X834224Y691732D1*
G37*
G36*
X835996Y720079D2*
X848791D1*
X862402Y706469D1*
X876012Y720079D1*
X888807D1*
X878150Y730736D1*
Y752728D1*
X888807Y763386D1*
X877677D1*
Y774161D1*
X862382Y758866D1*
X846732Y774066D1*
Y763386D1*
X835996D1*
X846654Y752728D1*
Y730736D1*
X835996Y720079D1*
G37*
G36*
X890748Y718138D2*
Y705343D1*
X877138Y691732D1*
X890748Y678122D1*
Y665327D1*
X901406Y675984D1*
X923398D1*
X934055Y665327D1*
Y676457D1*
X944831D1*
X929535Y691752D1*
X944735Y707402D1*
X934055D1*
Y718138D1*
X923398Y707480D1*
X901406D1*
X890748Y718138D1*
G37*
G36*
X934224Y691732D2*
X962402Y663555D1*
X974909Y676063D1*
X987744D1*
X972075Y691732D1*
X987705Y707362D1*
X978031D1*
Y717035D1*
X962402Y701406D1*
X946732Y717075D1*
Y704240D1*
X934224Y691732D1*
G37*
G36*
X935996Y720079D2*
X948791D1*
X962402Y706469D1*
X976012Y720079D1*
X988807D1*
X978150Y730736D1*
Y752728D1*
X988807Y763386D1*
X977677D1*
Y774161D1*
X962382Y758866D1*
X946732Y774066D1*
Y763386D1*
X935996D1*
X946654Y752728D1*
Y730736D1*
X935996Y720079D1*
G37*
G36*
X990748Y718138D2*
Y705343D1*
X977138Y691732D1*
X990748Y678122D1*
Y665327D1*
X1001406Y675984D1*
X1023398D1*
X1034055Y665327D1*
Y676457D1*
X1044831D1*
X1029535Y691752D1*
X1044735Y707402D1*
X1034055D1*
Y718138D1*
X1023398Y707480D1*
X1001406D1*
X990748Y718138D1*
G37*
G36*
X1034224Y691732D2*
X1062402Y663555D1*
X1074909Y676063D1*
X1087744D1*
X1072075Y691732D1*
X1087705Y707362D1*
X1078031D1*
Y717035D1*
X1062402Y701406D1*
X1046732Y717075D1*
Y704240D1*
X1034224Y691732D1*
G37*
G36*
X1035996Y720079D2*
X1048791D1*
X1062402Y706469D1*
X1076012Y720079D1*
X1088807D1*
X1078150Y730736D1*
Y752728D1*
X1088807Y763386D1*
X1077677D1*
Y774161D1*
X1062382Y758866D1*
X1046732Y774066D1*
Y763386D1*
X1035996D1*
X1046654Y752728D1*
Y730736D1*
X1035996Y720079D1*
G37*
G36*
X1090748Y718138D2*
Y705343D1*
X1077138Y691732D1*
X1090748Y678122D1*
Y665327D1*
X1101406Y675984D1*
X1123398D1*
X1134055Y665327D1*
Y676457D1*
X1144831D1*
X1129535Y691752D1*
X1144735Y707402D1*
X1134055D1*
Y718138D1*
X1123398Y707480D1*
X1101406D1*
X1090748Y718138D1*
G37*
G36*
X1134224Y691732D2*
X1162402Y663555D1*
X1174909Y676063D1*
X1187744D1*
X1172075Y691732D1*
X1187705Y707362D1*
X1178031D1*
Y717035D1*
X1162402Y701406D1*
X1146732Y717075D1*
Y704240D1*
X1134224Y691732D1*
G37*
G36*
X1135996Y720079D2*
X1148791D1*
X1162402Y706469D1*
X1176012Y720079D1*
X1188807D1*
X1178150Y730736D1*
Y752728D1*
X1188807Y763386D1*
X1177677D1*
Y774161D1*
X1162382Y758866D1*
X1146732Y774066D1*
Y763386D1*
X1135996D1*
X1146654Y752728D1*
Y730736D1*
X1135996Y720079D1*
G37*
G36*
X1190748Y718138D2*
Y705343D1*
X1177138Y691732D1*
X1190748Y678122D1*
Y665327D1*
X1201406Y675984D1*
X1223398D1*
X1234055Y665327D1*
Y676457D1*
X1244831D1*
X1229535Y691752D1*
X1244735Y707402D1*
X1234055D1*
Y718138D1*
X1223398Y707480D1*
X1201406D1*
X1190748Y718138D1*
G37*
G36*
X1234224Y691732D2*
X1262402Y663555D1*
X1274909Y676063D1*
X1287744D1*
X1272075Y691732D1*
X1287705Y707362D1*
X1278031D1*
Y717035D1*
X1262402Y701406D1*
X1246732Y717075D1*
Y704240D1*
X1234224Y691732D1*
G37*
G36*
X1235996Y720079D2*
X1248791D1*
X1262402Y706469D1*
X1276012Y720079D1*
X1288807D1*
X1278150Y730736D1*
Y752728D1*
X1288807Y763386D1*
X1277677D1*
Y774161D1*
X1262382Y758866D1*
X1246732Y774066D1*
Y763386D1*
X1235996D1*
X1246654Y752728D1*
Y730736D1*
X1235996Y720079D1*
G37*
G36*
X1290748Y718138D2*
Y705343D1*
X1277138Y691732D1*
X1290748Y678122D1*
Y665327D1*
X1301406Y675984D1*
X1323398D1*
X1334055Y665327D1*
Y676457D1*
X1344831D1*
X1329535Y691752D1*
X1344735Y707402D1*
X1334055D1*
Y718138D1*
X1323398Y707480D1*
X1301406D1*
X1290748Y718138D1*
G37*
G36*
X1334224Y691732D2*
X1362402Y663555D1*
X1374909Y676063D1*
X1387744D1*
X1372075Y691732D1*
X1387705Y707362D1*
X1378031D1*
Y717035D1*
X1362402Y701406D1*
X1346732Y717075D1*
Y704240D1*
X1334224Y691732D1*
G37*
G36*
X1335996Y720079D2*
X1348791D1*
X1362402Y706469D1*
X1376012Y720079D1*
X1388807D1*
X1378150Y730736D1*
Y752728D1*
X1388807Y763386D1*
X1377677D1*
Y774161D1*
X1362382Y758866D1*
X1346732Y774066D1*
Y763386D1*
X1335996D1*
X1346654Y752728D1*
Y730736D1*
X1335996Y720079D1*
G37*
G36*
X1390748Y718138D2*
Y705343D1*
X1377138Y691732D1*
X1390748Y678122D1*
Y665327D1*
X1401406Y675984D1*
X1423398D1*
X1434055Y665327D1*
Y676457D1*
X1444831D1*
X1429535Y691752D1*
X1444735Y707402D1*
X1434055D1*
Y718138D1*
X1423398Y707480D1*
X1401406D1*
X1390748Y718138D1*
G37*
G36*
X1434224Y691732D2*
X1462402Y663555D1*
X1474909Y676063D1*
X1487744D1*
X1472075Y691732D1*
X1487705Y707362D1*
X1478031D1*
Y717035D1*
X1462402Y701406D1*
X1446732Y717075D1*
Y704240D1*
X1434224Y691732D1*
G37*
G36*
X1435996Y720079D2*
X1448791D1*
X1462402Y706469D1*
X1476012Y720079D1*
X1488807D1*
X1478150Y730736D1*
Y752728D1*
X1488807Y763386D1*
X1477677D1*
Y774161D1*
X1462382Y758866D1*
X1446732Y774066D1*
Y763386D1*
X1435996D1*
X1446654Y752728D1*
Y730736D1*
X1435996Y720079D1*
G37*
D19*
X712402Y741732D3*
X812402D3*
X912402D3*
X1012402D3*
X1112402D3*
X1212402D3*
X1312402D3*
X1412402D3*
G36*
X690748Y618138D2*
Y605343D1*
X677138Y591732D1*
X690748Y578122D1*
Y565327D1*
X701406Y575984D1*
X723398D1*
X734055Y565327D1*
Y576457D1*
X744831D1*
X729535Y591752D1*
X744735Y607402D1*
X734055D1*
Y618138D1*
X723398Y607480D1*
X701406D1*
X690748Y618138D1*
G37*
G36*
X734224Y591732D2*
X762402Y563555D1*
X774909Y576063D1*
X787744D1*
X772075Y591732D1*
X787705Y607362D1*
X778031D1*
Y617035D1*
X762402Y601406D1*
X746732Y617075D1*
Y604240D1*
X734224Y591732D1*
G37*
G36*
X735996Y620079D2*
X748791D1*
X762402Y606469D1*
X776012Y620079D1*
X788807D1*
X778150Y630736D1*
Y652728D1*
X788807Y663386D1*
X777677D1*
Y674161D1*
X762382Y658866D1*
X746732Y674066D1*
Y663386D1*
X735996D1*
X746654Y652728D1*
Y630736D1*
X735996Y620079D1*
G37*
G36*
X790748Y618138D2*
Y605343D1*
X777138Y591732D1*
X790748Y578122D1*
Y565327D1*
X801406Y575984D1*
X823398D1*
X834055Y565327D1*
Y576457D1*
X844831D1*
X829535Y591752D1*
X844735Y607402D1*
X834055D1*
Y618138D1*
X823398Y607480D1*
X801406D1*
X790748Y618138D1*
G37*
G36*
X834224Y591732D2*
X862402Y563555D1*
X874909Y576063D1*
X887744D1*
X872075Y591732D1*
X887705Y607362D1*
X878031D1*
Y617035D1*
X862402Y601406D1*
X846732Y617075D1*
Y604240D1*
X834224Y591732D1*
G37*
G36*
X835996Y620079D2*
X848791D1*
X862402Y606469D1*
X876012Y620079D1*
X888807D1*
X878150Y630736D1*
Y652728D1*
X888807Y663386D1*
X877677D1*
Y674161D1*
X862382Y658866D1*
X846732Y674066D1*
Y663386D1*
X835996D1*
X846654Y652728D1*
Y630736D1*
X835996Y620079D1*
G37*
G36*
X890748Y618138D2*
Y605343D1*
X877138Y591732D1*
X890748Y578122D1*
Y565327D1*
X901406Y575984D1*
X923398D1*
X934055Y565327D1*
Y576457D1*
X944831D1*
X929535Y591752D1*
X944735Y607402D1*
X934055D1*
Y618138D1*
X923398Y607480D1*
X901406D1*
X890748Y618138D1*
G37*
G36*
X934224Y591732D2*
X962402Y563555D1*
X974909Y576063D1*
X987744D1*
X972075Y591732D1*
X987705Y607362D1*
X978031D1*
Y617035D1*
X962402Y601406D1*
X946732Y617075D1*
Y604240D1*
X934224Y591732D1*
G37*
G36*
X935996Y620079D2*
X948791D1*
X962402Y606469D1*
X976012Y620079D1*
X988807D1*
X978150Y630736D1*
Y652728D1*
X988807Y663386D1*
X977677D1*
Y674161D1*
X962382Y658866D1*
X946732Y674066D1*
Y663386D1*
X935996D1*
X946654Y652728D1*
Y630736D1*
X935996Y620079D1*
G37*
G36*
X990748Y618138D2*
Y605343D1*
X977138Y591732D1*
X990748Y578122D1*
Y565327D1*
X1001406Y575984D1*
X1023398D1*
X1034055Y565327D1*
Y576457D1*
X1044831D1*
X1029535Y591752D1*
X1044735Y607402D1*
X1034055D1*
Y618138D1*
X1023398Y607480D1*
X1001406D1*
X990748Y618138D1*
G37*
G36*
X1034224Y591732D2*
X1062402Y563555D1*
X1074909Y576063D1*
X1087744D1*
X1072075Y591732D1*
X1087705Y607362D1*
X1078031D1*
Y617035D1*
X1062402Y601406D1*
X1046732Y617075D1*
Y604240D1*
X1034224Y591732D1*
G37*
G36*
X1035996Y620079D2*
X1048791D1*
X1062402Y606469D1*
X1076012Y620079D1*
X1088807D1*
X1078150Y630736D1*
Y652728D1*
X1088807Y663386D1*
X1077677D1*
Y674161D1*
X1062382Y658866D1*
X1046732Y674066D1*
Y663386D1*
X1035996D1*
X1046654Y652728D1*
Y630736D1*
X1035996Y620079D1*
G37*
G36*
X1090748Y618138D2*
Y605343D1*
X1077138Y591732D1*
X1090748Y578122D1*
Y565327D1*
X1101406Y575984D1*
X1123398D1*
X1134055Y565327D1*
Y576457D1*
X1144831D1*
X1129535Y591752D1*
X1144735Y607402D1*
X1134055D1*
Y618138D1*
X1123398Y607480D1*
X1101406D1*
X1090748Y618138D1*
G37*
G36*
X1134224Y591732D2*
X1162402Y563555D1*
X1174909Y576063D1*
X1187744D1*
X1172075Y591732D1*
X1187705Y607362D1*
X1178031D1*
Y617035D1*
X1162402Y601406D1*
X1146732Y617075D1*
Y604240D1*
X1134224Y591732D1*
G37*
G36*
X1135996Y620079D2*
X1148791D1*
X1162402Y606469D1*
X1176012Y620079D1*
X1188807D1*
X1178150Y630736D1*
Y652728D1*
X1188807Y663386D1*
X1177677D1*
Y674161D1*
X1162382Y658866D1*
X1146732Y674066D1*
Y663386D1*
X1135996D1*
X1146654Y652728D1*
Y630736D1*
X1135996Y620079D1*
G37*
G36*
X1190748Y618138D2*
Y605343D1*
X1177138Y591732D1*
X1190748Y578122D1*
Y565327D1*
X1201406Y575984D1*
X1223398D1*
X1234055Y565327D1*
Y576457D1*
X1244831D1*
X1229535Y591752D1*
X1244735Y607402D1*
X1234055D1*
Y618138D1*
X1223398Y607480D1*
X1201406D1*
X1190748Y618138D1*
G37*
G36*
X1234224Y591732D2*
X1262402Y563555D1*
X1274909Y576063D1*
X1287744D1*
X1272075Y591732D1*
X1287705Y607362D1*
X1278031D1*
Y617035D1*
X1262402Y601406D1*
X1246732Y617075D1*
Y604240D1*
X1234224Y591732D1*
G37*
G36*
X1235996Y620079D2*
X1248791D1*
X1262402Y606469D1*
X1276012Y620079D1*
X1288807D1*
X1278150Y630736D1*
Y652728D1*
X1288807Y663386D1*
X1277677D1*
Y674161D1*
X1262382Y658866D1*
X1246732Y674066D1*
Y663386D1*
X1235996D1*
X1246654Y652728D1*
Y630736D1*
X1235996Y620079D1*
G37*
G36*
X1290748Y618138D2*
Y605343D1*
X1277138Y591732D1*
X1290748Y578122D1*
Y565327D1*
X1301406Y575984D1*
X1323398D1*
X1334055Y565327D1*
Y576457D1*
X1344831D1*
X1329535Y591752D1*
X1344735Y607402D1*
X1334055D1*
Y618138D1*
X1323398Y607480D1*
X1301406D1*
X1290748Y618138D1*
G37*
G36*
X1334224Y591732D2*
X1362402Y563555D1*
X1374909Y576063D1*
X1387744D1*
X1372075Y591732D1*
X1387705Y607362D1*
X1378031D1*
Y617035D1*
X1362402Y601406D1*
X1346732Y617075D1*
Y604240D1*
X1334224Y591732D1*
G37*
G36*
X1335996Y620079D2*
X1348791D1*
X1362402Y606469D1*
X1376012Y620079D1*
X1388807D1*
X1378150Y630736D1*
Y652728D1*
X1388807Y663386D1*
X1377677D1*
Y674161D1*
X1362382Y658866D1*
X1346732Y674066D1*
Y663386D1*
X1335996D1*
X1346654Y652728D1*
Y630736D1*
X1335996Y620079D1*
G37*
G36*
X1390748Y618138D2*
Y605343D1*
X1377138Y591732D1*
X1390748Y578122D1*
Y565327D1*
X1401406Y575984D1*
X1423398D1*
X1434055Y565327D1*
Y576457D1*
X1444831D1*
X1429535Y591752D1*
X1444735Y607402D1*
X1434055D1*
Y618138D1*
X1423398Y607480D1*
X1401406D1*
X1390748Y618138D1*
G37*
G36*
X1434224Y591732D2*
X1462402Y563555D1*
X1474909Y576063D1*
X1487744D1*
X1472075Y591732D1*
X1487705Y607362D1*
X1478031D1*
Y617035D1*
X1462402Y601406D1*
X1446732Y617075D1*
Y604240D1*
X1434224Y591732D1*
G37*
G36*
X1435996Y620079D2*
X1448791D1*
X1462402Y606469D1*
X1476012Y620079D1*
X1488807D1*
X1478150Y630736D1*
Y652728D1*
X1488807Y663386D1*
X1477677D1*
Y674161D1*
X1462382Y658866D1*
X1446732Y674066D1*
Y663386D1*
X1435996D1*
X1446654Y652728D1*
Y630736D1*
X1435996Y620079D1*
G37*
D19*
X712402Y641732D3*
X812402D3*
X912402D3*
X1012402D3*
X1112402D3*
X1212402D3*
X1312402D3*
X1412402D3*
G36*
X690748Y518138D2*
Y505343D1*
X677138Y491732D1*
X690748Y478122D1*
Y465327D1*
X701406Y475984D1*
X723398D1*
X734055Y465327D1*
Y476457D1*
X744831D1*
X729535Y491752D1*
X744735Y507402D1*
X734055D1*
Y518138D1*
X723398Y507480D1*
X701406D1*
X690748Y518138D1*
G37*
G36*
X734224Y491732D2*
X762402Y463555D1*
X774909Y476063D1*
X787744D1*
X772075Y491732D1*
X787705Y507362D1*
X778031D1*
Y517035D1*
X762402Y501406D1*
X746732Y517075D1*
Y504240D1*
X734224Y491732D1*
G37*
G36*
X735996Y520079D2*
X748791D1*
X762402Y506469D1*
X776012Y520079D1*
X788807D1*
X778150Y530736D1*
Y552728D1*
X788807Y563386D1*
X777677D1*
Y574161D1*
X762382Y558866D1*
X746732Y574066D1*
Y563386D1*
X735996D1*
X746654Y552728D1*
Y530736D1*
X735996Y520079D1*
G37*
G36*
X790748Y518138D2*
Y505343D1*
X777138Y491732D1*
X790748Y478122D1*
Y465327D1*
X801406Y475984D1*
X823398D1*
X834055Y465327D1*
Y476457D1*
X844831D1*
X829535Y491752D1*
X844735Y507402D1*
X834055D1*
Y518138D1*
X823398Y507480D1*
X801406D1*
X790748Y518138D1*
G37*
G36*
X834224Y491732D2*
X862402Y463555D1*
X874909Y476063D1*
X887744D1*
X872075Y491732D1*
X887705Y507362D1*
X878031D1*
Y517035D1*
X862402Y501406D1*
X846732Y517075D1*
Y504240D1*
X834224Y491732D1*
G37*
G36*
X835996Y520079D2*
X848791D1*
X862402Y506469D1*
X876012Y520079D1*
X888807D1*
X878150Y530736D1*
Y552728D1*
X888807Y563386D1*
X877677D1*
Y574161D1*
X862382Y558866D1*
X846732Y574066D1*
Y563386D1*
X835996D1*
X846654Y552728D1*
Y530736D1*
X835996Y520079D1*
G37*
G36*
X890748Y518138D2*
Y505343D1*
X877138Y491732D1*
X890748Y478122D1*
Y465327D1*
X901406Y475984D1*
X923398D1*
X934055Y465327D1*
Y476457D1*
X944831D1*
X929535Y491752D1*
X944735Y507402D1*
X934055D1*
Y518138D1*
X923398Y507480D1*
X901406D1*
X890748Y518138D1*
G37*
G36*
X934224Y491732D2*
X962402Y463555D1*
X974909Y476063D1*
X987744D1*
X972075Y491732D1*
X987705Y507362D1*
X978031D1*
Y517035D1*
X962402Y501406D1*
X946732Y517075D1*
Y504240D1*
X934224Y491732D1*
G37*
G36*
X935996Y520079D2*
X948791D1*
X962402Y506469D1*
X976012Y520079D1*
X988807D1*
X978150Y530736D1*
Y552728D1*
X988807Y563386D1*
X977677D1*
Y574161D1*
X962382Y558866D1*
X946732Y574066D1*
Y563386D1*
X935996D1*
X946654Y552728D1*
Y530736D1*
X935996Y520079D1*
G37*
G36*
X990748Y518138D2*
Y505343D1*
X977138Y491732D1*
X990748Y478122D1*
Y465327D1*
X1001406Y475984D1*
X1023398D1*
X1034055Y465327D1*
Y476457D1*
X1044831D1*
X1029535Y491752D1*
X1044735Y507402D1*
X1034055D1*
Y518138D1*
X1023398Y507480D1*
X1001406D1*
X990748Y518138D1*
G37*
G36*
X1034224Y491732D2*
X1062402Y463555D1*
X1074909Y476063D1*
X1087744D1*
X1072075Y491732D1*
X1087705Y507362D1*
X1078031D1*
Y517035D1*
X1062402Y501406D1*
X1046732Y517075D1*
Y504240D1*
X1034224Y491732D1*
G37*
G36*
X1035996Y520079D2*
X1048791D1*
X1062402Y506469D1*
X1076012Y520079D1*
X1088807D1*
X1078150Y530736D1*
Y552728D1*
X1088807Y563386D1*
X1077677D1*
Y574161D1*
X1062382Y558866D1*
X1046732Y574066D1*
Y563386D1*
X1035996D1*
X1046654Y552728D1*
Y530736D1*
X1035996Y520079D1*
G37*
G36*
X1090748Y518138D2*
Y505343D1*
X1077138Y491732D1*
X1090748Y478122D1*
Y465327D1*
X1101406Y475984D1*
X1123398D1*
X1134055Y465327D1*
Y476457D1*
X1144831D1*
X1129535Y491752D1*
X1144735Y507402D1*
X1134055D1*
Y518138D1*
X1123398Y507480D1*
X1101406D1*
X1090748Y518138D1*
G37*
G36*
X1134224Y491732D2*
X1162402Y463555D1*
X1174909Y476063D1*
X1187744D1*
X1172075Y491732D1*
X1187705Y507362D1*
X1178031D1*
Y517035D1*
X1162402Y501406D1*
X1146732Y517075D1*
Y504240D1*
X1134224Y491732D1*
G37*
G36*
X1135996Y520079D2*
X1148791D1*
X1162402Y506469D1*
X1176012Y520079D1*
X1188807D1*
X1178150Y530736D1*
Y552728D1*
X1188807Y563386D1*
X1177677D1*
Y574161D1*
X1162382Y558866D1*
X1146732Y574066D1*
Y563386D1*
X1135996D1*
X1146654Y552728D1*
Y530736D1*
X1135996Y520079D1*
G37*
G36*
X1190748Y518138D2*
Y505343D1*
X1177138Y491732D1*
X1190748Y478122D1*
Y465327D1*
X1201406Y475984D1*
X1223398D1*
X1234055Y465327D1*
Y476457D1*
X1244831D1*
X1229535Y491752D1*
X1244735Y507402D1*
X1234055D1*
Y518138D1*
X1223398Y507480D1*
X1201406D1*
X1190748Y518138D1*
G37*
G36*
X1234224Y491732D2*
X1262402Y463555D1*
X1274909Y476063D1*
X1287744D1*
X1272075Y491732D1*
X1287705Y507362D1*
X1278031D1*
Y517035D1*
X1262402Y501406D1*
X1246732Y517075D1*
Y504240D1*
X1234224Y491732D1*
G37*
G36*
X1235996Y520079D2*
X1248791D1*
X1262402Y506469D1*
X1276012Y520079D1*
X1288807D1*
X1278150Y530736D1*
Y552728D1*
X1288807Y563386D1*
X1277677D1*
Y574161D1*
X1262382Y558866D1*
X1246732Y574066D1*
Y563386D1*
X1235996D1*
X1246654Y552728D1*
Y530736D1*
X1235996Y520079D1*
G37*
G36*
X1290748Y518138D2*
Y505343D1*
X1277138Y491732D1*
X1290748Y478122D1*
Y465327D1*
X1301406Y475984D1*
X1323398D1*
X1334055Y465327D1*
Y476457D1*
X1344831D1*
X1329535Y491752D1*
X1344735Y507402D1*
X1334055D1*
Y518138D1*
X1323398Y507480D1*
X1301406D1*
X1290748Y518138D1*
G37*
G36*
X1334224Y491732D2*
X1362402Y463555D1*
X1374909Y476063D1*
X1387744D1*
X1372075Y491732D1*
X1387705Y507362D1*
X1378031D1*
Y517035D1*
X1362402Y501406D1*
X1346732Y517075D1*
Y504240D1*
X1334224Y491732D1*
G37*
G36*
X1335996Y520079D2*
X1348791D1*
X1362402Y506469D1*
X1376012Y520079D1*
X1388807D1*
X1378150Y530736D1*
Y552728D1*
X1388807Y563386D1*
X1377677D1*
Y574161D1*
X1362382Y558866D1*
X1346732Y574066D1*
Y563386D1*
X1335996D1*
X1346654Y552728D1*
Y530736D1*
X1335996Y520079D1*
G37*
G36*
X1390748Y518138D2*
Y505343D1*
X1377138Y491732D1*
X1390748Y478122D1*
Y465327D1*
X1401406Y475984D1*
X1423398D1*
X1434055Y465327D1*
Y476457D1*
X1444831D1*
X1429535Y491752D1*
X1444735Y507402D1*
X1434055D1*
Y518138D1*
X1423398Y507480D1*
X1401406D1*
X1390748Y518138D1*
G37*
G36*
X1434224Y491732D2*
X1462402Y463555D1*
X1474909Y476063D1*
X1487744D1*
X1472075Y491732D1*
X1487705Y507362D1*
X1478031D1*
Y517035D1*
X1462402Y501406D1*
X1446732Y517075D1*
Y504240D1*
X1434224Y491732D1*
G37*
G36*
X1435996Y520079D2*
X1448791D1*
X1462402Y506469D1*
X1476012Y520079D1*
X1488807D1*
X1478150Y530736D1*
Y552728D1*
X1488807Y563386D1*
X1477677D1*
Y574161D1*
X1462382Y558866D1*
X1446732Y574066D1*
Y563386D1*
X1435996D1*
X1446654Y552728D1*
Y530736D1*
X1435996Y520079D1*
G37*
D19*
X712402Y541732D3*
X812402D3*
X912402D3*
X1012402D3*
X1112402D3*
X1212402D3*
X1312402D3*
X1412402D3*
G36*
X690748Y1018138D2*
Y1005343D1*
X677138Y991732D1*
X690748Y978122D1*
Y965327D1*
X701406Y975984D1*
X723398D1*
X734055Y965327D1*
Y976457D1*
X744831D1*
X729535Y991752D1*
X744735Y1007402D1*
X734055D1*
Y1018138D1*
X723398Y1007480D1*
X701406D1*
X690748Y1018138D1*
G37*
G36*
X734224Y991732D2*
X762402Y963555D1*
X774909Y976063D1*
X787744D1*
X772075Y991732D1*
X787705Y1007362D1*
X778031D1*
Y1017035D1*
X762402Y1001406D1*
X746732Y1017075D1*
Y1004240D1*
X734224Y991732D1*
G37*
G36*
X735996Y1020079D2*
X748791D1*
X762402Y1006469D1*
X776012Y1020079D1*
X788807D1*
X778150Y1030736D1*
Y1052728D1*
X788807Y1063386D1*
X777677D1*
Y1074161D1*
X762382Y1058866D1*
X746732Y1074066D1*
Y1063386D1*
X735996D1*
X746654Y1052728D1*
Y1030736D1*
X735996Y1020079D1*
G37*
G36*
X790748Y1018138D2*
Y1005343D1*
X777138Y991732D1*
X790748Y978122D1*
Y965327D1*
X801406Y975984D1*
X823398D1*
X834055Y965327D1*
Y976457D1*
X844831D1*
X829535Y991752D1*
X844735Y1007402D1*
X834055D1*
Y1018138D1*
X823398Y1007480D1*
X801406D1*
X790748Y1018138D1*
G37*
G36*
X834224Y991732D2*
X862402Y963555D1*
X874909Y976063D1*
X887744D1*
X872075Y991732D1*
X887705Y1007362D1*
X878031D1*
Y1017035D1*
X862402Y1001406D1*
X846732Y1017075D1*
Y1004240D1*
X834224Y991732D1*
G37*
G36*
X835996Y1020079D2*
X848791D1*
X862402Y1006469D1*
X876012Y1020079D1*
X888807D1*
X878150Y1030736D1*
Y1052728D1*
X888807Y1063386D1*
X877677D1*
Y1074161D1*
X862382Y1058866D1*
X846732Y1074066D1*
Y1063386D1*
X835996D1*
X846654Y1052728D1*
Y1030736D1*
X835996Y1020079D1*
G37*
G36*
X890748Y1018138D2*
Y1005343D1*
X877138Y991732D1*
X890748Y978122D1*
Y965327D1*
X901406Y975984D1*
X923398D1*
X934055Y965327D1*
Y976457D1*
X944831D1*
X929535Y991752D1*
X944735Y1007402D1*
X934055D1*
Y1018138D1*
X923398Y1007480D1*
X901406D1*
X890748Y1018138D1*
G37*
G36*
X934224Y991732D2*
X962402Y963555D1*
X974909Y976063D1*
X987744D1*
X972075Y991732D1*
X987705Y1007362D1*
X978031D1*
Y1017035D1*
X962402Y1001406D1*
X946732Y1017075D1*
Y1004240D1*
X934224Y991732D1*
G37*
G36*
X935996Y1020079D2*
X948791D1*
X962402Y1006469D1*
X976012Y1020079D1*
X988807D1*
X978150Y1030736D1*
Y1052728D1*
X988807Y1063386D1*
X977677D1*
Y1074161D1*
X962382Y1058866D1*
X946732Y1074066D1*
Y1063386D1*
X935996D1*
X946654Y1052728D1*
Y1030736D1*
X935996Y1020079D1*
G37*
G36*
X990748Y1018138D2*
Y1005343D1*
X977138Y991732D1*
X990748Y978122D1*
Y965327D1*
X1001406Y975984D1*
X1023398D1*
X1034055Y965327D1*
Y976457D1*
X1044831D1*
X1029535Y991752D1*
X1044735Y1007402D1*
X1034055D1*
Y1018138D1*
X1023398Y1007480D1*
X1001406D1*
X990748Y1018138D1*
G37*
G36*
X1034224Y991732D2*
X1062402Y963555D1*
X1074909Y976063D1*
X1087744D1*
X1072075Y991732D1*
X1087705Y1007362D1*
X1078031D1*
Y1017035D1*
X1062402Y1001406D1*
X1046732Y1017075D1*
Y1004240D1*
X1034224Y991732D1*
G37*
G36*
X1035996Y1020079D2*
X1048791D1*
X1062402Y1006469D1*
X1076012Y1020079D1*
X1088807D1*
X1078150Y1030736D1*
Y1052728D1*
X1088807Y1063386D1*
X1077677D1*
Y1074161D1*
X1062382Y1058866D1*
X1046732Y1074066D1*
Y1063386D1*
X1035996D1*
X1046654Y1052728D1*
Y1030736D1*
X1035996Y1020079D1*
G37*
G36*
X1090748Y1018138D2*
Y1005343D1*
X1077138Y991732D1*
X1090748Y978122D1*
Y965327D1*
X1101406Y975984D1*
X1123398D1*
X1134055Y965327D1*
Y976457D1*
X1144831D1*
X1129535Y991752D1*
X1144735Y1007402D1*
X1134055D1*
Y1018138D1*
X1123398Y1007480D1*
X1101406D1*
X1090748Y1018138D1*
G37*
G36*
X1134224Y991732D2*
X1162402Y963555D1*
X1174909Y976063D1*
X1187744D1*
X1172075Y991732D1*
X1187705Y1007362D1*
X1178031D1*
Y1017035D1*
X1162402Y1001406D1*
X1146732Y1017075D1*
Y1004240D1*
X1134224Y991732D1*
G37*
G36*
X1135996Y1020079D2*
X1148791D1*
X1162402Y1006469D1*
X1176012Y1020079D1*
X1188807D1*
X1178150Y1030736D1*
Y1052728D1*
X1188807Y1063386D1*
X1177677D1*
Y1074161D1*
X1162382Y1058866D1*
X1146732Y1074066D1*
Y1063386D1*
X1135996D1*
X1146654Y1052728D1*
Y1030736D1*
X1135996Y1020079D1*
G37*
G36*
X1190748Y1018138D2*
Y1005343D1*
X1177138Y991732D1*
X1190748Y978122D1*
Y965327D1*
X1201406Y975984D1*
X1223398D1*
X1234055Y965327D1*
Y976457D1*
X1244831D1*
X1229535Y991752D1*
X1244735Y1007402D1*
X1234055D1*
Y1018138D1*
X1223398Y1007480D1*
X1201406D1*
X1190748Y1018138D1*
G37*
G36*
X1234224Y991732D2*
X1262402Y963555D1*
X1274909Y976063D1*
X1287744D1*
X1272075Y991732D1*
X1287705Y1007362D1*
X1278031D1*
Y1017035D1*
X1262402Y1001406D1*
X1246732Y1017075D1*
Y1004240D1*
X1234224Y991732D1*
G37*
G36*
X1235996Y1020079D2*
X1248791D1*
X1262402Y1006469D1*
X1276012Y1020079D1*
X1288807D1*
X1278150Y1030736D1*
Y1052728D1*
X1288807Y1063386D1*
X1277677D1*
Y1074161D1*
X1262382Y1058866D1*
X1246732Y1074066D1*
Y1063386D1*
X1235996D1*
X1246654Y1052728D1*
Y1030736D1*
X1235996Y1020079D1*
G37*
G36*
X1290748Y1018138D2*
Y1005343D1*
X1277138Y991732D1*
X1290748Y978122D1*
Y965327D1*
X1301406Y975984D1*
X1323398D1*
X1334055Y965327D1*
Y976457D1*
X1344831D1*
X1329535Y991752D1*
X1344735Y1007402D1*
X1334055D1*
Y1018138D1*
X1323398Y1007480D1*
X1301406D1*
X1290748Y1018138D1*
G37*
G36*
X1334224Y991732D2*
X1362402Y963555D1*
X1374909Y976063D1*
X1387744D1*
X1372075Y991732D1*
X1387705Y1007362D1*
X1378031D1*
Y1017035D1*
X1362402Y1001406D1*
X1346732Y1017075D1*
Y1004240D1*
X1334224Y991732D1*
G37*
G36*
X1335996Y1020079D2*
X1348791D1*
X1362402Y1006469D1*
X1376012Y1020079D1*
X1388807D1*
X1378150Y1030736D1*
Y1052728D1*
X1388807Y1063386D1*
X1377677D1*
Y1074161D1*
X1362382Y1058866D1*
X1346732Y1074066D1*
Y1063386D1*
X1335996D1*
X1346654Y1052728D1*
Y1030736D1*
X1335996Y1020079D1*
G37*
G36*
X1390748Y1018138D2*
Y1005343D1*
X1377138Y991732D1*
X1390748Y978122D1*
Y965327D1*
X1401406Y975984D1*
X1423398D1*
X1434055Y965327D1*
Y976457D1*
X1444831D1*
X1429535Y991752D1*
X1444735Y1007402D1*
X1434055D1*
Y1018138D1*
X1423398Y1007480D1*
X1401406D1*
X1390748Y1018138D1*
G37*
G36*
X1434224Y991732D2*
X1462402Y963555D1*
X1474909Y976063D1*
X1487744D1*
X1472075Y991732D1*
X1487705Y1007362D1*
X1478031D1*
Y1017035D1*
X1462402Y1001406D1*
X1446732Y1017075D1*
Y1004240D1*
X1434224Y991732D1*
G37*
G36*
X1435996Y1020079D2*
X1448791D1*
X1462402Y1006469D1*
X1476012Y1020079D1*
X1488807D1*
X1478150Y1030736D1*
Y1052728D1*
X1488807Y1063386D1*
X1477677D1*
Y1074161D1*
X1462382Y1058866D1*
X1446732Y1074066D1*
Y1063386D1*
X1435996D1*
X1446654Y1052728D1*
Y1030736D1*
X1435996Y1020079D1*
G37*
D19*
X712402Y1041732D3*
X812402D3*
X912402D3*
X1012402D3*
X1112402D3*
X1212402D3*
X1312402D3*
X1412402D3*
M02*
