M48
INCH
T01C0.0394
T02C0.0984
%
T01
X+007124Y+009417
X+007124Y+008417
X+007124Y+007417
X+008124Y+007417
X+008124Y+008417
X+008124Y+009417
X+009124Y+009417
X+009124Y+008417
X+010124Y+008417
X+011124Y+008417
X+011124Y+009417
X+010124Y+009417
X+010124Y+010417
X+009124Y+010417
X+008124Y+010417
X+007124Y+010417
X+009124Y+007417
X+010124Y+007417
X+011124Y+007417
X+012124Y+007417
X+013124Y+007417
X+014124Y+007417
X+014124Y+008417
X+013124Y+008417
X+013124Y+009417
X+012124Y+009417
X+012124Y+008417
X+012124Y+006417
X+013124Y+006417
X+014124Y+006417
X+014124Y+005417
X+013124Y+005417
X+012124Y+005417
X+011124Y+005417
X+010124Y+005417
X+009124Y+005417
X+008124Y+005417
X+008124Y+006417
X+009124Y+006417
X+010124Y+006417
X+011124Y+006417
X+007124Y+006417
X+007124Y+005417
X+011124Y+010417
X+012124Y+010417
X+013124Y+010417
X+014124Y+010417
X+014124Y+009417
T00
M30
